<?xml version="1.0" standalone="no"?>
<!DOCTYPE svg PUBLIC "-//W3C//DTD SVG 1.1//EN" "http://www.w3.org/Graphics/SVG/1.1/DTD/svg11.dtd" >
<svg>
<metadata>
Created by FontForge 20110222 at Wed Jun  4 16:08:42 2014
 By deploy user
Copyright (c) 1988, 1990, 1993, 2003 Linotype Library GmbH, www.linotype.com. All rights reserved. Copyright (c) 1988, 1990, 1993 Adobe Systems Incorporated. All Rights Reserved.
</metadata>
<defs>
<font id="HelveticaNeueLTPro-HvEx" horiz-adv-x="814" >
  <font-face 
    font-family="HelveticaNeueLT Pro 63 MdEx"
    font-weight="750"
    font-stretch="normal"
    units-per-em="1000"
    panose-1="2 11 9 7 4 5 2 3 2 4"
    ascent="714"
    descent="-286"
    x-height="542"
    cap-height="714"
    bbox="-200 -235 1297 1003"
    underline-thickness="50"
    underline-position="-50"
    unicode-range="U+000D-FB02"
  />
<missing-glyph horiz-adv-x="512" 
d="M222 117h56v67h-56v-67zM225 234h46q0 52 6 72q6 19 43 52q37 34 50 60t13 60q0 59 -35 95t-89 36q-56 0 -92 -34t-43 -103l50 -8q11 95 82 95q31 0 53.5 -24.5t22.5 -60.5q0 -20 -9.5 -37t-40.5 -46q-31 -31 -46 -59q-13 -25 -13 -81zM462 50h-412v617h412v-617z
M512 718h-512v-718h512v718z" />
    <glyph glyph-name="IJ" unicode="IJ" horiz-adv-x="1130" 
d="M75 0v714h238v-714h-238zM398 256v30h238q0 -86 18.5 -120t78.5 -34q59 0 79 31.5t20 98.5v452h238v-466q0 -46 -6.5 -82t-27 -73t-55 -61t-93.5 -39t-139 -15q-84 0 -144 12t-109 41.5t-73.5 85.5t-24.5 139z" />
    <glyph glyph-name="ij" unicode="ij" horiz-adv-x="666" 
d="M60 0v542h212v-542h-212zM60 604v128h212v-128h-212zM287 -193v145h25q55 0 68.5 12t13.5 58v520h212v-535q0 -119 -43 -161t-170 -42q-22 0 -106 3zM394 604v128h212v-128h-212z" />
    <glyph glyph-name="napostrophe" unicode="&#x22;n" horiz-adv-x="829" 
d="M107 0v542h206v-78h2q75 92 228 92q104 0 167 -50.5t63 -148.5v-357h-212v293q0 103 -110 103q-59 0 -95.5 -33t-36.5 -97v-266h-212zM0 714v108h208v-76q0 -31 -13 -54q-12 -25 -44 -40q-31 -15 -111 -15v45q51 5 56 32h-96z" />
    <glyph glyph-name="fi" unicode="fi" horiz-adv-x="796" 
d="M0 402v140h111v46q0 41 8.5 67.5t32.5 47.5t70 31t117 10q58 0 124 -8v-120h-95q-28 0 -36.5 -8t-8.5 -33v-33h140v-140h-140v-402h-212v402h-111zM524 0v542h212v-542h-212zM524 604v128h212v-128h-212z" />
    <glyph glyph-name="fl" unicode="fl" horiz-adv-x="796" 
d="M0 402v140h111v46q0 41 8.5 67.5t32.5 47.5t70 31t117 10q58 0 124 -8v-120h-95q-28 0 -36.5 -8t-8.5 -33v-33h140v-140h-140v-402h-212v402h-111zM524 0v732h212v-732h-212z" />
    <glyph glyph-name=".notdef" horiz-adv-x="512" 
d="M222 117h56v67h-56v-67zM225 234h46q0 52 6 72q6 19 43 52q37 34 50 60t13 60q0 59 -35 95t-89 36q-56 0 -92 -34t-43 -103l50 -8q11 95 82 95q31 0 53.5 -24.5t22.5 -60.5q0 -20 -9.5 -37t-40.5 -46q-31 -31 -46 -59q-13 -25 -13 -81zM462 50h-412v617h412v-617z
M512 718h-512v-718h512v718z" />
    <glyph glyph-name=".null" horiz-adv-x="500" 
 />
    <glyph glyph-name=".null" horiz-adv-x="500" 
 />
    <glyph glyph-name="nonmarkingreturn" horiz-adv-x="333" 
 />
    <glyph glyph-name="CR" unicode="&#xd;" horiz-adv-x="0" 
 />
    <glyph glyph-name="space" unicode=" " horiz-adv-x="388" 
 />
    <glyph glyph-name="exclam" unicode="!" horiz-adv-x="388" 
d="M108 253l-29 461h230l-29 -461h-172zM82 0v198h224v-198h-224z" />
    <glyph glyph-name="quotedbl" unicode="&#x22;" horiz-adv-x="667" 
d="M377 320v394h148v-394h-148zM142 320v394h148v-394h-148z" />
    <glyph glyph-name="numbersign" unicode="#" horiz-adv-x="888" 
d="M225 0l24 173h-82v116h98l17 116h-82v116h98l24 173h120l-24 -173h101l24 173h120l-24 -173h82v-116h-98l-17 -116h82v-116h-98l-24 -173h-120l24 173h-101l-24 -173h-120zM486 289l17 116h-101l-17 -116h101z" />
    <glyph glyph-name="dollar" unicode="$" horiz-adv-x="888" 
d="M404 447v121q-23 0 -44.5 -3.5t-44.5 -18.5t-23 -41q0 -38 45 -46zM472 264v-132q48 0 80 15.5t32 50.5q0 32 -23.5 44.5t-86.5 21.5h-2zM416 -105v89q-86 1 -150 12.5t-117 36.5t-82 70.5t-33 110.5h270q4 -37 28 -56.5t84 -25.5v142l-120 17q-138 20 -194 66t-56 132
q0 54 25.5 95t63 64t88.5 37t93.5 18.5t87.5 4.5v89h56v-89q174 -9 262.5 -61t99.5 -160h-264q-6 66 -98 81v-129l177 -27q109 -16 163 -61.5t54 -133.5q0 -53 -20 -93.5t-55.5 -65t-73.5 -40.5t-86 -23t-80 -9t-67 -2v-89h-56z" />
    <glyph glyph-name="percent" unicode="%" horiz-adv-x="1074" 
d="M174 516q0 -96 78 -96t78 96t-78 96t-78 -96zM254 -16l455 724h112l-455 -724h-112zM744 176q0 -96 78 -96t78 96t-78 96t-78 -96zM34 516q0 98 58 145t160 47t160 -47t58 -145t-58 -145t-160 -47t-160 47t-58 145zM604 176q0 98 58 145t160 47t160 -47t58 -145t-58 -145
t-160 -47t-160 47t-58 145z" />
    <glyph glyph-name="ampersand" unicode="&#x26;" horiz-adv-x="981" 
d="M539 157l-189 172q-35 -11 -56 -41t-21 -58q0 -46 37.5 -79t103.5 -33q76 0 125 39zM994 0h-286l-64 59q-119 -81 -290 -81q-155 0 -233 65.5t-78 163.5q0 165 204 212q-21 19 -32.5 32t-25 40t-13.5 55q0 86 75 130.5t193 44.5q129 0 199.5 -43t70.5 -123
q0 -116 -158 -159l138 -126q51 36 115 128l113 -79q-50 -83 -121 -147zM388 554q0 -29 60 -78q80 30 80 76q0 24 -18 38.5t-48 14.5q-74 0 -74 -51z" />
    <glyph glyph-name="quotesingle" unicode="'" horiz-adv-x="388" 
d="M120 320v394h148v-394h-148z" />
    <glyph glyph-name="parenleft" unicode="(" horiz-adv-x="481" 
d="M417 -190h-146q-95 92 -143 212t-48 240t48 240t143 212h146q-125 -198 -125 -452t125 -452z" />
    <glyph glyph-name="parenright" unicode=")" horiz-adv-x="481" 
d="M210 -190h-146q125 198 125 452t-125 452h146q95 -92 143 -212t48 -240t-48 -240t-143 -212z" />
    <glyph glyph-name="asterisk" unicode="*" horiz-adv-x="464" 
d="M52 364l91 108l-134 43l39 112l128 -53l-4 140h120l-4 -140l128 53l39 -112l-134 -43l91 -108l-96 -72l-84 114l-84 -114z" />
    <glyph glyph-name="plus" unicode="+" horiz-adv-x="600" 
d="M230 323v183h140v-183h183v-140h-183v-183h-140v183h-183v140h183z" />
    <glyph glyph-name="comma" unicode="," horiz-adv-x="388" 
d="M82 0v198h224v-127q0 -245 -224 -267v82q88 17 99 114h-99z" />
    <glyph glyph-name="hyphen" unicode="-" horiz-adv-x="481" 
d="M61 213v154h359v-154h-359z" />
    <glyph glyph-name="period" unicode="." horiz-adv-x="388" 
d="M82 0v198h224v-198h-224z" />
    <glyph glyph-name="slash" unicode="/" horiz-adv-x="444" 
d="M-3 -22l288 758h162l-288 -758h-162z" />
    <glyph glyph-name="zero" unicode="0" horiz-adv-x="888" 
d="M444 708q109 0 190.5 -30t127 -82.5t67 -115.5t21.5 -137q0 -73 -21.5 -135t-67 -113.5t-127 -81t-190.5 -29.5t-190.5 29.5t-127 81t-67 113.5t-21.5 135q0 76 21 139t66.5 115t127 81.5t191.5 29.5zM444 554q-33 0 -61.5 -9.5t-55.5 -31.5t-43 -65.5t-16 -104.5
q0 -111 52 -158t124 -47q33 0 61.5 8.5t55.5 29.5t43 63.5t16 103.5t-16 104.5t-43 65.5t-55.5 31.5t-61.5 9.5z" />
    <glyph glyph-name="one" unicode="1" horiz-adv-x="611" 
d="M263 0v416h-212v148h34q57 0 94.5 7.5t73.5 37t55 83.5h173v-692h-218z" />
    <glyph glyph-name="two" unicode="2" horiz-adv-x="888" 
d="M828 154v-154h-797q3 83 28 145.5t71 103.5t98.5 66.5t123.5 45.5l167 47q32 9 52 27t20 43q0 34 -33.5 54.5t-99.5 21.5q-68 0 -109.5 -27.5t-47.5 -85.5h-246q17 267 404 267q177 0 277.5 -59t100.5 -174q0 -62 -34.5 -106t-87 -65.5t-118.5 -39t-125.5 -28.5t-112 -32
t-74.5 -50h543z" />
    <glyph glyph-name="three" unicode="3" horiz-adv-x="888" 
d="M320 296v140h146q57 0 83.5 14t26.5 50q0 68 -131 68q-61 0 -94.5 -12.5t-45.5 -52.5h-246q7 61 42.5 103.5t94 63.5t121 29.5t141.5 8.5q364 0 364 -194q0 -57 -37 -95t-82 -40v-2q57 -10 100.5 -51.5t43.5 -112.5q0 -113 -103 -171t-295 -58q-112 0 -190 16t-124.5 49
t-68.5 78t-25 107h238q8 -96 162 -96q68 0 111 20t43 62q0 39 -34 57.5t-111 18.5h-130z" />
    <glyph glyph-name="four" unicode="4" horiz-adv-x="888" 
d="M514 0v116h-474v156l392 420h288v-428h128v-148h-128v-116h-206zM514 264v274l-256 -274h256z" />
    <glyph glyph-name="five" unicode="5" horiz-adv-x="888" 
d="M72 302l68 390h656v-148h-503l-19 -105q84 33 214 33q161 0 256 -60t95 -174q0 -119 -101 -186.5t-298 -67.5q-203 0 -295 58.5t-107 176.5h246q17 -81 153 -81q84 0 124 26.5t40 71.5q0 43 -41 72.5t-121 29.5q-90 0 -140 -36h-227z" />
    <glyph glyph-name="six" unicode="6" horiz-adv-x="888" 
d="M492 452q348 0 348 -231q0 -110 -95 -173.5t-279 -63.5q-94 0 -165 16t-130.5 55t-91 113t-31.5 181q0 184 108.5 271.5t298.5 87.5q69 0 128 -9.5t113.5 -32t89.5 -65.5t44 -104h-234q-19 63 -135 63q-99 0 -137.5 -43t-45.5 -118q82 53 214 53zM450 312
q-89 0 -119.5 -25.5t-30.5 -68.5q0 -36 37.5 -61t113.5 -25q151 0 151 86q0 94 -152 94z" />
    <glyph glyph-name="seven" unicode="7" horiz-adv-x="833" 
d="M23 544v148h787v-190q-83 -71 -135.5 -121.5t-107 -114t-87.5 -129t-48 -137.5h-300q13 113 85 210t204 211l143 123h-541z" />
    <glyph glyph-name="eight" unicode="8" horiz-adv-x="888" 
d="M444 427q71 0 106.5 13.5t35.5 50.5q0 41 -35 55t-107 14t-107 -14t-35 -55q0 -37 35.5 -50.5t106.5 -13.5zM444 299q-158 0 -158 -82q0 -39 33.5 -62t124.5 -23t124.5 23t33.5 62q0 82 -158 82zM444 708q194 0 287 -46t93 -148q0 -103 -120 -136v-2q68 -13 106 -56
t38 -106q0 -230 -404 -230t-404 230q0 63 38 106t106 56v2q-120 33 -120 136t92.5 148.5t287.5 45.5z" />
    <glyph glyph-name="nine" unicode="9" horiz-adv-x="888" 
d="M58 195h234q19 -63 135 -63q99 0 137.5 43t45.5 118q-82 -53 -214 -53q-348 0 -348 231q0 110 95 173.5t279 63.5q94 0 165 -16t130.5 -55t91 -113t31.5 -181q0 -184 -108.5 -271.5t-298.5 -87.5q-69 0 -128 9.5t-113.5 32t-89.5 65.5t-44 104zM438 380q89 0 119.5 25.5
t30.5 68.5q0 36 -37.5 61t-113.5 25q-151 0 -151 -86q0 -94 152 -94z" />
    <glyph glyph-name="colon" unicode=":" horiz-adv-x="388" 
d="M82 344v198h224v-198h-224zM82 0v198h224v-198h-224z" />
    <glyph glyph-name="semicolon" unicode=";" horiz-adv-x="388" 
d="M82 0v198h224v-127q0 -245 -224 -267v82q88 17 99 114h-99zM82 344v198h224v-198h-224z" />
    <glyph glyph-name="semicolon" unicode="&#x37e;" horiz-adv-x="388" 
d="M82 0v198h224v-127q0 -245 -224 -267v82q88 17 99 114h-99zM82 344v198h224v-198h-224z" />
    <glyph glyph-name="less" unicode="&#x3c;" horiz-adv-x="600" 
d="M47 192v122l506 210v-135l-340 -136l340 -136v-135z" />
    <glyph glyph-name="equal" unicode="=" horiz-adv-x="600" 
d="M47 295v140h506v-140h-506zM47 71v140h506v-140h-506z" />
    <glyph glyph-name="greater" unicode="&#x3e;" horiz-adv-x="600" 
d="M47 -18v135l340 136l-340 136v135l506 -210v-122z" />
    <glyph glyph-name="question" unicode="?" horiz-adv-x="796" 
d="M495 253h-218q0 54 16 82.5t57 50.5l109 56q58 30 58 75q0 33 -32.5 54t-81.5 21q-76 0 -108 -30.5t-36 -90.5h-235q14 137 101 199t270 62q169 0 264.5 -55.5t95.5 -166.5q0 -50 -25 -85.5t-62 -55t-74.5 -34.5t-66 -35.5t-32.5 -46.5zM274 0v198h224v-198h-224z" />
    <glyph glyph-name="at" unicode="@" horiz-adv-x="800" 
d="M309 346q0 -36 20.5 -59.5t55.5 -23.5q47 0 76 31t29 75q0 37 -22 60t-59 23q-41 0 -70.5 -33t-29.5 -73zM531 538h95l-40 -216q-8 -40 -8 -47q0 -22 17 -22q31 0 59.5 41.5t28.5 118.5q0 106 -74.5 166.5t-193.5 60.5q-128 0 -206 -79.5t-78 -204.5q0 -130 83 -206
t218 -76q114 0 196 58h113q-112 -154 -325 -154q-163 0 -279 107.5t-116 270.5q0 161 115.5 270.5t281.5 109.5q92 0 173.5 -36.5t134.5 -108.5t53 -163q0 -62 -25.5 -115.5t-64.5 -87t-84 -53t-87 -19.5q-24 0 -40 12t-19 33h-4q-39 -45 -108 -45q-66 0 -113 49.5
t-47 126.5q0 94 58.5 163.5t149.5 69.5q81 0 128 -62z" />
    <glyph glyph-name="A" unicode="A" horiz-adv-x="852" 
d="M-28 0l310 714h291l307 -714h-255l-43 116h-312l-43 -116h-255zM526 264l-99 270h-2l-99 -270h200z" />
    <glyph glyph-name="B" unicode="B" horiz-adv-x="944" 
d="M310 560v-121h237q36 0 54.5 17t18.5 44q0 26 -18.5 43t-54.5 17h-237zM310 154h256q39 0 61.5 19.5t22.5 54.5t-22.5 53t-61.5 18h-256v-145zM72 0v714h591q50 0 87.5 -12t59 -30t34.5 -43t17.5 -46.5t4.5 -44.5q0 -50 -24.5 -90t-63.5 -54v-2q58 -13 91 -59t33 -120
q0 -28 -5.5 -54.5t-22.5 -56.5t-44.5 -51.5t-75.5 -36t-111 -14.5h-571z" />
    <glyph glyph-name="C" unicode="C" horiz-adv-x="963" 
d="M672 275h264q-12 -65 -36 -113t-72.5 -92.5t-135 -68t-208.5 -23.5q-449 0 -449 379q0 184 110.5 281.5t338.5 97.5q71 0 126.5 -7t110.5 -26.5t95 -52t71.5 -85.5t46.5 -126h-265q-37 137 -184 137q-105 0 -151.5 -60.5t-46.5 -158.5q0 -219 198 -219q79 0 127 36.5
t60 100.5z" />
    <glyph glyph-name="D" unicode="D" horiz-adv-x="963" 
d="M72 0v714h516q340 0 340 -357q0 -102 -28.5 -173.5t-81 -110.5t-116 -56t-145.5 -17h-485zM310 554v-394h199q49 0 84 16.5t53.5 46t27 62.5t8.5 73q0 196 -192 196h-180z" />
    <glyph glyph-name="E" unicode="E" horiz-adv-x="815" 
d="M72 0v714h715v-154h-477v-129h447v-148h-447v-129h477v-154h-715z" />
    <glyph glyph-name="F" unicode="F" horiz-adv-x="760" 
d="M72 0v714h681v-160h-443v-123h412v-154h-412v-277h-238z" />
    <glyph glyph-name="G" unicode="G" horiz-adv-x="1000" 
d="M548 257v148h384v-405h-111l-29 74q-34 -36 -110 -66t-198 -30q-230 0 -339.5 95.5t-109.5 283.5q0 168 113.5 273.5t334.5 105.5q80 0 150 -12t136 -39t109.5 -79.5t53.5 -126.5h-269q-30 103 -170 103q-105 0 -158.5 -63t-53.5 -163q0 -99 53.5 -161.5t158.5 -62.5
q166 0 201 125h-146z" />
    <glyph glyph-name="H" unicode="H" horiz-adv-x="981" 
d="M671 0v299h-361v-299h-238v714h238v-255h361v255h238v-714h-238z" />
    <glyph glyph-name="I" unicode="I" horiz-adv-x="388" 
d="M75 0v714h238v-714h-238z" />
    <glyph glyph-name="J" unicode="J" horiz-adv-x="741" 
d="M9 256v30h238q0 -86 18.5 -120t78.5 -34q59 0 79 31.5t20 98.5v452h238v-466q0 -46 -6.5 -82t-27 -73t-55 -61t-93.5 -39t-139 -15q-84 0 -144 12t-109 41.5t-73.5 85.5t-24.5 139z" />
    <glyph glyph-name="K" unicode="K" horiz-adv-x="926" 
d="M72 0v714h238v-280l298 280h317l-323 -281l348 -433h-318l-221 285l-101 -84v-201h-238z" />
    <glyph glyph-name="L" unicode="L" horiz-adv-x="760" 
d="M72 0v714h238v-548h435v-166h-673z" />
    <glyph glyph-name="M" unicode="M" horiz-adv-x="1168" 
d="M72 0v714h348l163 -471h2l163 471h348v-714h-224v534h-2l-188 -534h-196l-188 534h-2v-534h-224z" />
    <glyph glyph-name="N" unicode="N" horiz-adv-x="981" 
d="M72 0v714h274l331 -447h2v447h230v-714h-263l-342 451h-2v-451h-230z" />
    <glyph glyph-name="O" unicode="O" horiz-adv-x="1000" 
d="M35 357q0 379 465 379t465 -379t-465 -379t-465 379zM287 357q0 -109 57 -164t156 -55t156 55t57 164t-57 164t-156 55q-98 0 -155.5 -55.5t-57.5 -163.5z" />
    <glyph glyph-name="P" unicode="P" horiz-adv-x="889" 
d="M310 566v-180h212q50 0 72.5 21t22.5 69t-22.5 69t-72.5 21h-212zM72 0v714h528q138 0 200.5 -64t62.5 -174q0 -47 -13 -87.5t-40.5 -75.5t-78.5 -55t-120 -20h-301v-238h-238z" />
    <glyph glyph-name="Q" unicode="Q" horiz-adv-x="1000" 
d="M853 -128l-147 129q-43 -10 -101 -17q-53 -6 -105 -6q-465 0 -465 379t465 379t465 -379q0 -183 -109 -278l102 -91zM547 141l-49 43l104 117l81 -71q30 48 30 127q0 109 -57 164t-156 55q-98 0 -155.5 -55.5t-57.5 -163.5q0 -109 57 -164t156 -55q30 0 47 3z" />
    <glyph glyph-name="R" unicode="R" horiz-adv-x="926" 
d="M310 554v-156h229q44 0 66.5 21t22.5 58q0 36 -23 56.5t-66 20.5h-229zM72 0v714h572q239 0 239 -199q0 -68 -31.5 -109t-82.5 -54v-2q77 -26 86 -128q9 -116 16.5 -156.5t28.5 -65.5h-261q-14 33 -14 106q0 79 -23.5 105.5t-73.5 26.5h-218v-238h-238z" />
    <glyph glyph-name="S" unicode="S" horiz-adv-x="889" 
d="M836 505h-270q-7 40 -42 61.5t-113 21.5q-124 0 -124 -70q0 -35 53 -44q26 -5 86 -14.5t133 -20.5t94 -14q105 -18 159 -65.5t54 -137.5q0 -244 -412 -244q-98 0 -169 10t-131.5 36t-93 75t-37.5 121h282q4 -44 38.5 -66t121.5 -22q125 0 125 75q0 27 -24.5 40.5
t-88.5 23.5l-238 36q-204 29 -204 202q0 31 8 59.5t32.5 60t64 54.5t108 38t158.5 15q202 0 310 -54.5t120 -176.5z" />
    <glyph glyph-name="T" unicode="T" horiz-adv-x="760" 
d="M-1 554v160h762v-160h-262v-554h-238v554h-262z" />
    <glyph glyph-name="U" unicode="U" horiz-adv-x="926" 
d="M62 252v462h238v-423q0 -84 39 -118.5t124 -34.5t124 34.5t39 118.5v423h238v-462q0 -143 -102 -208.5t-299 -65.5t-299 65.5t-102 208.5z" />
    <glyph glyph-name="V" unicode="V" 
d="M281 0l-318 714h261l182 -509h2l182 509h261l-318 -714h-252z" />
    <glyph glyph-name="W" unicode="W" horiz-adv-x="1148" 
d="M214 0l-214 714h230l112 -482h2l129 482h202l129 -482h2l112 482h230l-214 -714h-235l-124 465h-2l-124 -465h-235z" />
    <glyph glyph-name="X" unicode="X" horiz-adv-x="852" 
d="M-21 0l310 371l-277 343h283l131 -192l131 192h283l-277 -343l310 -371h-295l-152 216l-152 -216h-295z" />
    <glyph glyph-name="Y" unicode="Y" 
d="M288 0v225l-317 489h276l160 -303l160 303h276l-317 -489v-225h-238z" />
    <glyph glyph-name="Z" unicode="Z" 
d="M18 0v137l450 417h-419v160h738v-140l-447 -414h440v-160h-762z" />
    <glyph glyph-name="bracketleft" unicode="[" horiz-adv-x="481" 
d="M72 -190v904h384v-154h-172v-596h172v-154h-384z" />
    <glyph glyph-name="backslash" unicode="\" horiz-adv-x="444" 
d="M288 -22l-288 758h156l288 -758h-156z" />
    <glyph glyph-name="bracketright" unicode="]" horiz-adv-x="481" 
d="M25 -190v154h172v596h-172v154h384v-904h-384z" />
    <glyph glyph-name="asciicircum" unicode="^" horiz-adv-x="600" 
d="M47 327l175 365h156l175 -365h-143l-110 237l-110 -237h-143z" />
    <glyph glyph-name="underscore" unicode="_" horiz-adv-x="500" 
d="M0 -125v50h500v-50h-500z" />
    <glyph glyph-name="grave" unicode="`" horiz-adv-x="278" 
d="M65 600l-149 140h258l91 -140h-200z" />
    <glyph glyph-name="a" unicode="a" 
d="M276 372h-212q6 47 27.5 81t52 53.5t75 31t87 15t97.5 3.5q80 0 138 -7.5t107.5 -27t74.5 -57t25 -92.5v-274q0 -54 22 -98h-212q-9 21 -11 50q-43 -41 -104.5 -56.5t-150.5 -15.5q-265 0 -265 169q0 89 57 128.5t177 48.5l211 14q39 3 51.5 12.5t12.5 31.5q0 58 -134 58
q-59 0 -88.5 -16t-37.5 -52zM542 220v33q-26 -7 -81 -15l-143 -17q-61 -7 -61 -55q0 -32 25.5 -49t69.5 -17q91 0 140.5 31.5t49.5 88.5z" />
    <glyph glyph-name="b" unicode="b" 
d="M56 0v730h212v-257h2q57 83 202 83t230 -81.5t85 -202.5q0 -139 -85.5 -216.5t-231.5 -77.5q-137 0 -206 86h-2v-64h-206zM268 270q0 -64 38.5 -101t112.5 -37q73 0 111.5 35t38.5 103t-38.5 103t-111.5 35q-74 0 -112.5 -37t-38.5 -101z" />
    <glyph glyph-name="c" unicode="c" 
d="M563 221h224q-25 -121 -113.5 -182t-261.5 -61q-184 0 -282 73t-98 220q0 144 100.5 218.5t279.5 74.5q339 0 365 -233h-218q-17 93 -144 93q-76 0 -117.5 -39.5t-41.5 -113.5t41.5 -113.5t118.5 -39.5q125 0 147 103z" />
    <glyph glyph-name="d" unicode="d" 
d="M552 0v64h-2q-69 -86 -206 -86q-146 0 -231.5 77.5t-85.5 216.5q0 121 85 202.5t230 81.5t202 -83h2v257h212v-730h-206zM546 270q0 64 -38.5 101t-112.5 37q-73 0 -111.5 -35t-38.5 -103t38.5 -103t111.5 -35q74 0 112.5 37t38.5 101z" />
    <glyph glyph-name="e" unicode="e" 
d="M250 331h314q-26 111 -157 111q-71 0 -109.5 -31t-47.5 -80zM548 161h224q-22 -77 -111 -130t-249 -53q-380 0 -380 294q0 141 101 216.5t273 75.5q179 0 277.5 -81t98.5 -246v-16h-532q19 -121 170 -121q80 0 128 61z" />
    <glyph glyph-name="f" unicode="f" horiz-adv-x="463" 
d="M0 402v140h111v46q0 41 8.5 67.5t32.5 47.5t70 31t117 10q58 0 124 -8v-120h-95q-28 0 -36.5 -8t-8.5 -33v-33h140v-140h-140v-402h-212v402h-111z" />
    <glyph glyph-name="g" unicode="g" horiz-adv-x="833" 
d="M571 473v69h206v-493q0 -137 -83.5 -197t-277.5 -60q-85 0 -146 8.5t-111 28.5t-78.5 57t-36.5 92h234q14 -64 129 -64q88 0 123 32.5t35 108.5v38q-69 -69 -217 -69q-163 0 -242 73t-79 193q0 115 82.5 190.5t238.5 75.5q160 0 221 -83h2zM251 287q0 -57 39.5 -93
t116.5 -36q158 0 158 127q0 60 -39.5 95.5t-118.5 35.5q-77 0 -116.5 -36t-39.5 -93z" />
    <glyph glyph-name="h" unicode="h" horiz-adv-x="778" 
d="M56 0v732h212v-268h2q29 42 86.5 67t135.5 25q104 0 167 -50.5t63 -148.5v-357h-212v293q0 103 -110 103q-59 0 -95.5 -33t-36.5 -97v-266h-212z" />
    <glyph glyph-name="i" unicode="i" horiz-adv-x="332" 
d="M60 0v542h212v-542h-212zM60 604v128h212v-128h-212z" />
    <glyph glyph-name="j" unicode="j" horiz-adv-x="352" 
d="M-27 -193v145h25q55 0 68.5 12t13.5 58v520h212v-535q0 -119 -43 -161t-170 -42q-22 0 -106 3zM80 604v128h212v-128h-212z" />
    <glyph glyph-name="k" unicode="k" horiz-adv-x="778" 
d="M56 0v732h212v-379l212 189h287l-250 -201l274 -341h-288l-154 205l-81 -65v-140h-212z" />
    <glyph glyph-name="l" unicode="l" horiz-adv-x="332" 
d="M60 0v732h212v-732h-212z" />
    <glyph glyph-name="m" unicode="m" horiz-adv-x="1168" 
d="M56 0v542h206v-79h2q93 93 218 93q131 0 192 -93q46 46 99 69.5t129 23.5q93 0 151.5 -44.5t58.5 -139.5v-372h-212v316q0 39 -24 59.5t-67 20.5q-58 0 -88.5 -25t-30.5 -68v-303h-212v316q0 39 -24 59.5t-67 20.5q-58 0 -88.5 -25t-30.5 -68v-303h-212z" />
    <glyph glyph-name="n" unicode="n" horiz-adv-x="778" 
d="M56 0v542h206v-78h2q75 92 228 92q104 0 167 -50.5t63 -148.5v-357h-212v293q0 103 -110 103q-59 0 -95.5 -33t-36.5 -97v-266h-212z" />
    <glyph glyph-name="o" unicode="o" 
d="M407 424q-74 0 -115 -38.5t-41 -114.5t41 -114.5t115 -38.5t115 38.5t41 114.5t-41 114.5t-115 38.5zM27 271q0 144 97 218.5t283 74.5t283 -74.5t97 -218.5t-97 -218.5t-283 -74.5t-283 74.5t-97 218.5z" />
    <glyph glyph-name="p" unicode="p" 
d="M56 -196v738h206v-72h2q69 86 206 86q146 0 231.5 -77.5t85.5 -216.5q0 -121 -85 -202.5t-230 -81.5q-138 0 -202 71h-2v-245h-212zM268 270q0 -64 38.5 -101t112.5 -37q73 0 111.5 35t38.5 103t-38.5 103t-111.5 35q-74 0 -112.5 -37t-38.5 -101z" />
    <glyph glyph-name="q" unicode="q" 
d="M546 -196v245h-2q-64 -71 -208 -71q-145 0 -227 80t-82 204q0 135 89 214.5t234 79.5q61 0 114 -22.5t86 -63.5h2v72h206v-738h-212zM546 270q0 64 -38.5 101t-112.5 37q-73 0 -111.5 -35t-38.5 -103t38.5 -103t111.5 -35q74 0 112.5 37t38.5 101z" />
    <glyph glyph-name="r" unicode="r" horiz-adv-x="574" 
d="M60 0v542h209v-107h2q33 55 91.5 88t129.5 33q40 0 72 -6v-198q-44 18 -117 18q-88 0 -131.5 -42t-43.5 -118v-210h-212z" />
    <glyph glyph-name="s" unicode="s" horiz-adv-x="759" 
d="M27 169h246q5 -31 30 -46q29 -17 94 -17q97 0 97 48q0 21 -15.5 29t-57.5 14l-189 23q-95 11 -141 47t-46 104q0 105 83.5 149t245.5 44q323 0 338 -180h-238q-4 33 -38 46q-28 12 -76 12q-97 0 -97 -51q0 -29 68 -38l183 -20q113 -12 165.5 -50.5t52.5 -116.5
q0 -188 -347 -188q-352 0 -358 191z" />
    <glyph glyph-name="t" unicode="t" horiz-adv-x="500" 
d="M0 402v140h111v172h212v-172h140v-140h-140v-218q0 -35 13 -45.5t56 -10.5q19 0 75 2v-132q-61 -10 -161 -10q-107 0 -151 32.5t-44 118.5v263h-111z" />
    <glyph glyph-name="u" unicode="u" horiz-adv-x="778" 
d="M56 197v345h212v-280q0 -67 27 -95.5t83 -28.5q59 0 95.5 33t36.5 97v274h212v-542h-206v70h-2q-75 -92 -228 -92q-230 0 -230 219z" />
    <glyph glyph-name="v" unicode="v" horiz-adv-x="722" 
d="M240 0l-250 542h241l130 -357l130 357h241l-250 -542h-242z" />
    <glyph glyph-name="w" unicode="w" horiz-adv-x="1130" 
d="M198 0l-196 542h230l112 -356h2l123 356h192l123 -356h2l112 356h230l-196 -542h-252l-114 319h-2l-114 -319h-252z" />
    <glyph glyph-name="x" unicode="x" horiz-adv-x="778" 
d="M-6 0l250 281l-229 261h263l111 -157l111 157h263l-228 -261l249 -281h-273l-122 167l-122 -167h-273z" />
    <glyph glyph-name="y" unicode="y" horiz-adv-x="685" 
d="M64 -190v134h51q34 0 55.5 6.5t28 13t13.5 19.5l24 48l-255 511h230l137 -322l132 322h224l-288 -610q-33 -70 -72.5 -99t-130.5 -29q-67 0 -149 6z" />
    <glyph glyph-name="z" unicode="z" horiz-adv-x="667" 
d="M22 0v128l326 264v2h-309v148h596v-128l-316 -266h326v-148h-623z" />
    <glyph glyph-name="braceleft" unicode="{" horiz-adv-x="481" 
d="M28 195v134q16 0 34.5 3.5t39 17.5t20.5 38v188q0 138 150 138h175v-128h-55q-58 0 -58 -62v-169q0 -83 -108 -92v-2q20 -2 33 -5t33 -12t31 -30.5t11 -53.5v-160q0 -62 58 -62h55v-128h-175q-150 0 -150 138v179q0 28 -20.5 44.5t-39 20t-34.5 3.5z" />
    <glyph glyph-name="bar" unicode="|" horiz-adv-x="222" 
d="M37 -22v758h148v-758h-148z" />
    <glyph glyph-name="braceright" unicode="}" horiz-adv-x="481" 
d="M453 329v-134q-16 0 -34.5 -3.5t-39 -17.5t-20.5 -38v-188q0 -138 -150 -138h-175v128h55q58 0 58 62v169q0 83 108 92v2q-20 2 -33 5t-33 12t-31 30.5t-11 53.5v160q0 62 -58 62h-55v128h175q150 0 150 -138v-179q0 -28 20.5 -44.5t39 -20t34.5 -3.5z" />
    <glyph glyph-name="asciitilde" unicode="~" horiz-adv-x="600" 
d="M105 145l-36 126q42 86 125 86q45 0 111 -32q76 -36 102 -36q19 0 37 13t25.5 23t25.5 36l36 -126q-27 -41 -55 -63.5t-70 -22.5q-45 0 -102 33q-59 35 -115 35q-51 0 -84 -72z" />
    <glyph glyph-name="uni00A0" unicode="&#xa0;" horiz-adv-x="388" 
 />
    <glyph glyph-name="exclamdown" unicode="&#xa1;" horiz-adv-x="388" 
d="M79 -172l29 461h172l29 -461h-230zM82 344v198h224v-198h-224z" />
    <glyph glyph-name="cent" unicode="&#xa2;" horiz-adv-x="888" 
d="M430 120v303q-61 -8 -94.5 -47.5t-33.5 -104.5q0 -134 128 -151zM430 -128v108q-352 11 -352 291q0 281 352 292v91h56v-91q311 -8 337 -232h-218q-14 82 -119 92v-303q106 11 123 101h224q-19 -116 -100.5 -176.5t-246.5 -64.5v-108h-56z" />
    <glyph glyph-name="sterling" unicode="&#xa3;" horiz-adv-x="888" 
d="M74 301v104h57q-24 51 -24 95q0 103 97.5 155.5t255.5 52.5q178 0 266 -61.5t88 -197.5h-246q0 49 -22 75q-26 30 -87 30q-46 0 -76 -21t-30 -53q0 -21 16 -75h158v-104h-151q-8 -85 -85 -135l2 -2q48 25 112 25q31 0 99.5 -12.5t103.5 -12.5q91 0 164 60l64 -165
q-101 -75 -232 -75q-50 0 -158.5 22.5t-145.5 22.5q-70 0 -153 -45l-87 149q92 52 92 125v23q0 6 -2 20h-76z" />
    <glyph glyph-name="currency" unicode="&#xa4;" horiz-adv-x="888" 
d="M444 486q-57 0 -92.5 -38.5t-35.5 -101.5t35.5 -101.5t92.5 -38.5t92.5 38.5t35.5 101.5q0 60 -36 100t-92 40zM161 134l61 61q-46 66 -46 151q0 86 47 151l-62 60l73 73l60 -62q64 46 150 46t150 -46l60 62l73 -73l-62 -60q47 -65 47 -151q0 -89 -48 -151l63 -61
l-73 -72l-60 63q-63 -47 -150 -47t-150 47l-60 -63z" />
    <glyph glyph-name="yen" unicode="&#xa5;" horiz-adv-x="888" 
d="M338 0v97h-216v104h216v44l-23 33h-193v104h120l-221 310h263l160 -292l160 292h263l-220 -310h119v-104h-193l-23 -33v-44h216v-104h-216v-97h-212z" />
    <glyph glyph-name="brokenbar" unicode="&#xa6;" horiz-adv-x="222" 
d="M37 -22v296h148v-296h-148zM37 440v296h148v-296h-148z" />
    <glyph glyph-name="section" unicode="&#xa7;" horiz-adv-x="888" 
d="M525 31l-277 65q-98 22 -157 72t-59 131q0 111 103 158q-36 33 -36 91q0 24 8 48t30 50t56.5 45.5t93 32t133.5 12.5q338 0 363 -213h-227q-2 41 -32.5 57t-100.5 16q-106 0 -106 -50q0 -16 18 -26.5t66 -19.5l226 -47q122 -26 175.5 -74.5t53.5 -127.5q0 -102 -95 -151
q46 -40 46 -93q0 -95 -85 -149t-264 -54q-355 0 -380 220h227q8 -50 48.5 -68t115.5 -18q47 0 77.5 13.5t30.5 36.5q0 18 -11.5 27t-40.5 16zM580 291l-318 81q-32 -26 -32 -55q0 -42 65 -59l339 -86q24 27 24 56q0 24 -18 37.5t-60 25.5z" />
    <glyph glyph-name="dieresis" unicode="&#xa8;" horiz-adv-x="278" 
d="M-120 606v128h212v-128h-212zM186 606v128h212v-128h-212z" />
    <glyph glyph-name="copyright" unicode="&#xa9;" horiz-adv-x="800" 
d="M149 357q0 -121 73.5 -195t177.5 -74q102 0 176.5 74t74.5 195t-74.5 195t-176.5 74q-104 0 -177.5 -74t-73.5 -195zM483 298h114q-12 -76 -62 -118t-119 -42q-94 0 -152.5 62.5t-58.5 155.5q0 95 56.5 157t148.5 62q74 0 122.5 -40t60.5 -116h-110q-14 60 -73 60
q-45 0 -70 -32t-25 -89t26.5 -90.5t71.5 -33.5q29 0 47.5 16.5t22.5 47.5zM21 357q0 156 111.5 267.5t267.5 111.5t267.5 -111.5t111.5 -267.5t-111.5 -267.5t-267.5 -111.5t-267.5 111.5t-111.5 267.5z" />
    <glyph glyph-name="ordfeminine" unicode="&#xaa;" horiz-adv-x="529" 
d="M518 358h-151q-6 15 -6 30q-62 -42 -165 -42q-96 0 -140.5 26.5t-44.5 86.5q0 100 167 108l125 6q43 3 43 23q0 32 -80 32q-64 0 -75 -36h-155q9 68 76 96q51 20 157 20q117 0 175.5 -24.5t58.5 -93.5v-173q0 -35 15 -59zM349 499v14q-6 -2 -25.5 -4t-26.5 -3l-78 -11
q-40 -4 -40 -31q0 -14 15.5 -23t39.5 -9q53 0 84 18.5t31 48.5z" />
    <glyph glyph-name="guillemotleft" unicode="&#xab;" horiz-adv-x="648" 
d="M344 202v176l206 152v-148l-122 -92l122 -92v-148zM84 202v176l206 152v-148l-122 -92l122 -92v-148z" />
    <glyph glyph-name="logicalnot" unicode="&#xac;" horiz-adv-x="600" 
d="M413 108v187h-366v140h506v-327h-140z" />
    <glyph glyph-name="uni00AD" unicode="&#xad;" horiz-adv-x="481" 
d="M61 213v154h359v-154h-359z" />
    <glyph glyph-name="registered" unicode="&#xae;" horiz-adv-x="800" 
d="M21 357q0 156 111.5 267.5t267.5 111.5t267.5 -111.5t111.5 -267.5t-111.5 -267.5t-267.5 -111.5t-267.5 111.5t-111.5 267.5zM149 357q0 -121 73.5 -195t177.5 -74q102 0 176.5 74t74.5 195t-74.5 195t-176.5 74q-104 0 -177.5 -74t-73.5 -195zM254 177v386h134
q87 0 130.5 -28t43.5 -97q0 -51 -23.5 -75.5t-54.5 -29.5l89 -156h-107l-83 146h-33v-146h-96zM350 397h50q58 0 58 46t-58 46h-50v-92z" />
    <glyph glyph-name="macron" unicode="&#xaf;" horiz-adv-x="278" 
d="M-124 612v116h526v-116h-526z" />
    <glyph glyph-name="degree" unicode="&#xb0;" horiz-adv-x="400" 
d="M40 548q0 66 47 113t113 47t113 -47t47 -113t-47 -113t-113 -47t-113 47t-47 113zM114 548q0 -35 25.5 -60.5t60.5 -25.5t60.5 25.5t25.5 60.5t-25.5 60.5t-60.5 25.5t-60.5 -25.5t-25.5 -60.5z" />
    <glyph glyph-name="plusminus" unicode="&#xb1;" horiz-adv-x="600" 
d="M230 418v88h140v-88h183v-140h-183v-88h-140v88h-183v140h183zM47 0v140h506v-140h-506z" />
    <glyph glyph-name="twosuperior" unicode="&#xb2;" horiz-adv-x="577" 
d="M538 386v-104h-524q2 46 18 81t45.5 59t64.5 39t81 27l108 28q21 5 34 16.5t13 25.5q0 44 -80 46q-90 0 -96 -68h-180q7 95 82 137q62 35 194 35q260 0 260 -151q0 -54 -44 -85t-111 -42q-177 -28 -204 -42v-2h339z" />
    <glyph glyph-name="threesuperior" unicode="&#xb3;" horiz-adv-x="577" 
d="M198 446v96h89q71 0 71 34q0 36 -79 36q-36 0 -56 -7t-29 -31h-178q9 79 89 110q64 24 185 24q133 0 190.5 -29t57.5 -95q0 -37 -25.5 -59t-65.5 -24v-2q48 -4 79 -28.5t31 -69.5q0 -69 -67.5 -100t-207.5 -31q-153 0 -214 33t-65 107h174q3 -16 27 -26t73 -10
q94 0 94 31q0 41 -94 41h-79z" />
    <glyph glyph-name="acute" unicode="&#xb4;" horiz-adv-x="278" 
d="M13 600l91 140h258l-149 -140h-200z" />
    <glyph glyph-name="mu" unicode="&#xb5;" horiz-adv-x="778" 
d="M516 0v70h-2q-66 -92 -151 -92q-61 0 -93 36h-2v-210h-212v738h212v-280q0 -67 27 -95.5t83 -28.5q59 0 95.5 33t36.5 97v274h212v-542h-206z" />
    <glyph glyph-name="paragraph" unicode="&#xb6;" horiz-adv-x="720" 
d="M256 -174v504q-110 0 -171.5 48.5t-61.5 140.5q0 58 19.5 97.5t57 60t80 29t99.5 8.5h364v-888h-140v778h-107v-778h-140z" />
    <glyph glyph-name="periodcentered" unicode="&#xb7;" horiz-adv-x="388" 
d="M75 260q0 50 34.5 84.5t84.5 34.5t84.5 -34.5t34.5 -84.5t-34.5 -84.5t-84.5 -34.5t-84.5 34.5t-34.5 84.5z" />
    <glyph glyph-name="cedilla" unicode="&#xb8;" horiz-adv-x="278" 
d="M-9 -197l18 53q48 -16 81 -16q22 0 34.5 10t12.5 24q0 25 -39 25q-15 0 -36 -7l-25 20l62 88h69l-37 -51q32 5 47 5q37 0 68 -19.5t31 -59.5q0 -45 -37 -70t-106 -25q-83 0 -143 23z" />
    <glyph glyph-name="onesuperior" unicode="&#xb9;" horiz-adv-x="397" 
d="M161 282v242h-128v104h22q55 0 91 14.5t54 55.5h123v-416h-162z" />
    <glyph glyph-name="ordmasculine" unicode="&#xba;" horiz-adv-x="529" 
d="M169 527q0 -85 96 -85q45 0 70 21.5t25 63.5t-25 63.5t-70 21.5q-46 0 -71 -22t-25 -63zM1 527q0 181 264 181q263 0 263 -181t-263 -181q-264 0 -264 181z" />
    <glyph glyph-name="guillemotright" unicode="&#xbb;" horiz-adv-x="648" 
d="M98 50v148l122 92l-122 92v148l206 -152v-176zM358 50v148l122 92l-122 92v148l206 -152v-176z" />
    <glyph glyph-name="onequarter" unicode="&#xbc;" horiz-adv-x="1333" 
d="M983 0v55h-302v108l255 253h201v-239h70v-122h-70v-55h-154zM983 177v155l-161 -155h161zM293 -16l455 724h112l-455 -724h-112zM191 282v242h-128v104h22q55 0 91 14.5t54 55.5h123v-416h-162z" />
    <glyph glyph-name="onehalf" unicode="&#xbd;" horiz-adv-x="1333" 
d="M278 -16l455 724h112l-455 -724h-112zM191 282v242h-128v104h22q55 0 91 14.5t54 55.5h123v-416h-162zM1214 104v-104h-524q2 46 18 81t45.5 59t64.5 39t81 27l108 28q21 5 34 16.5t13 25.5q0 44 -80 46q-90 0 -96 -68h-180q7 95 82 137q62 35 194 35q260 0 260 -151
q0 -54 -44 -85t-111 -42q-177 -28 -204 -42v-2h339z" />
    <glyph glyph-name="threequarters" unicode="&#xbe;" horiz-adv-x="1333" 
d="M1073 0v55h-302v108l255 253h201v-239h70v-122h-70v-55h-154zM1073 177v155l-161 -155h161zM218 446v96h89q71 0 71 34q0 36 -79 36q-36 0 -56 -7t-29 -31h-178q9 79 89 110q64 24 185 24q133 0 190.5 -29t57.5 -95q0 -37 -25.5 -59t-65.5 -24v-2q48 -4 79 -28.5
t31 -69.5q0 -69 -67.5 -100t-207.5 -31q-153 0 -214 33t-65 107h174q3 -16 27 -26t73 -10q94 0 94 31q0 41 -94 41h-79zM423 -16l455 724h112l-455 -724h-112z" />
    <glyph glyph-name="questiondown" unicode="&#xbf;" horiz-adv-x="796" 
d="M301 289h218q0 -54 -16.5 -83.5t-56.5 -49.5l-109 -56q-58 -30 -58 -75q0 -33 32.5 -54t81.5 -21q76 0 108 30.5t36 90.5h235q-16 -137 -101.5 -199t-269.5 -62q-169 0 -264.5 55.5t-95.5 166.5q0 50 25 85.5t62 54.5t74.5 34.5t66 35.5t32.5 47zM298 344v198h224v-198
h-224z" />
    <glyph glyph-name="Agrave" unicode="&#xc0;" horiz-adv-x="852" 
d="M-28 0l310 714h291l307 -714h-255l-43 116h-312l-43 -116h-255zM526 264l-99 270h-2l-99 -270h200zM351 780l-149 140h258l91 -140h-200z" />
    <glyph glyph-name="Aacute" unicode="&#xc1;" horiz-adv-x="852" 
d="M-28 0l310 714h291l307 -714h-255l-43 116h-312l-43 -116h-255zM526 264l-99 270h-2l-99 -270h200zM302 780l91 140h258l-149 -140h-200z" />
    <glyph glyph-name="Acircumflex" unicode="&#xc2;" horiz-adv-x="852" 
d="M-28 0l310 714h291l307 -714h-255l-43 116h-312l-43 -116h-255zM526 264l-99 270h-2l-99 -270h200zM130 780l149 140h296l149 -140h-234l-71 77l-71 -77h-218z" />
    <glyph glyph-name="Atilde" unicode="&#xc3;" horiz-adv-x="852" 
d="M-28 0l310 714h291l307 -714h-255l-43 116h-312l-43 -116h-255zM526 264l-99 270h-2l-99 -270h200zM255 783h-96q34 145 162 145q30 0 71 -9l139 -29q18 -5 28 -5q27 0 43 35h93q-9 -65 -43 -106.5t-98 -41.5q-46 0 -193 35q-55 12 -60 12q-37 0 -46 -36z" />
    <glyph glyph-name="Adieresis" unicode="&#xc4;" horiz-adv-x="852" 
d="M-28 0l310 714h291l307 -714h-255l-43 116h-312l-43 -116h-255zM526 264l-99 270h-2l-99 -270h200zM169 786v128h212v-128h-212zM475 786v128h212v-128h-212z" />
    <glyph glyph-name="Aring" unicode="&#xc5;" horiz-adv-x="852" 
d="M-28 0l310 714h291l307 -714h-255l-43 116h-312l-43 -116h-255zM526 264l-99 270h-2l-99 -270h200zM290 875q0 56 39 92t95 36t95 -36t39 -92t-38.5 -91.5t-95.5 -35.5t-95.5 35.5t-38.5 91.5zM366 875q0 -24 17 -41t41 -17t41 17t17 41t-17 41t-41 17t-41 -17t-17 -41z
" />
    <glyph glyph-name="AE" unicode="&#xc6;" horiz-adv-x="1148" 
d="M-17 0l359 714h774v-154h-372v-129h358v-148h-358v-129h376v-154h-588v135h-237l-60 -135h-252zM532 283v283h-46l-125 -283h171z" />
    <glyph glyph-name="Ccedilla" unicode="&#xc7;" horiz-adv-x="963" 
d="M334 -197l18 53q48 -16 81 -16q22 0 34.5 10t12.5 24q0 25 -39 25q-15 0 -36 -7l-25 20l47 68q-184 10 -281 95q-111 97 -111 282q0 184 110.5 281.5t338.5 97.5q71 0 126.5 -7t110.5 -26.5t95 -52t71.5 -85.5t46.5 -126h-265q-37 137 -184 137q-105 0 -151.5 -60.5
t-46.5 -158.5q0 -219 198 -219q79 0 127 36.5t60 100.5h264q-19 -100 -72.5 -169t-170.5 -104q-79 -22 -198 -24l-21 -29q32 5 47 5q37 0 68 -19.5t31 -59.5q0 -45 -37 -70t-106 -25q-83 0 -143 23z" />
    <glyph glyph-name="Egrave" unicode="&#xc8;" horiz-adv-x="815" 
d="M72 0v714h715v-154h-477v-129h447v-148h-447v-129h477v-154h-715zM397 780l-149 140h258l91 -140h-200z" />
    <glyph glyph-name="Eacute" unicode="&#xc9;" horiz-adv-x="815" 
d="M72 0v714h715v-154h-477v-129h447v-148h-447v-129h477v-154h-715zM327 780l91 140h258l-149 -140h-200z" />
    <glyph glyph-name="Ecircumflex" unicode="&#xca;" horiz-adv-x="815" 
d="M72 0v714h715v-154h-477v-129h447v-148h-447v-129h477v-154h-715zM130 780l149 140h296l149 -140h-234l-71 77l-71 -77h-218z" />
    <glyph glyph-name="Edieresis" unicode="&#xcb;" horiz-adv-x="815" 
d="M72 0v714h715v-154h-477v-129h447v-148h-447v-129h477v-154h-715zM173 786v128h212v-128h-212zM479 786v128h212v-128h-212z" />
    <glyph glyph-name="Igrave" unicode="&#xcc;" horiz-adv-x="388" 
d="M75 0v714h238v-714h-238zM111 780l-149 140h258l91 -140h-200z" />
    <glyph glyph-name="Iacute" unicode="&#xcd;" horiz-adv-x="388" 
d="M75 0v714h238v-714h-238zM76 780l91 140h258l-149 -140h-200z" />
    <glyph glyph-name="Icircumflex" unicode="&#xce;" horiz-adv-x="388" 
d="M75 0v714h238v-714h-238zM-103 780l149 140h296l149 -140h-234l-71 77l-71 -77h-218z" />
    <glyph glyph-name="Idieresis" unicode="&#xcf;" horiz-adv-x="388" 
d="M75 0v714h238v-714h-238zM-64 786v128h212v-128h-212zM242 786v128h212v-128h-212z" />
    <glyph glyph-name="Eth" unicode="&#xd0;" horiz-adv-x="963" 
d="M72 0v291h-72v134h72v289h516q340 0 340 -357q0 -102 -28.5 -173.5t-81 -110.5t-116 -56t-145.5 -17h-485zM466 425v-134h-156v-131h199q49 0 84 16.5t53.5 46t27 62.5t8.5 73q0 196 -192 196h-180v-129h156z" />
    <glyph glyph-name="Ntilde" unicode="&#xd1;" horiz-adv-x="981" 
d="M72 0v714h274l331 -447h2v447h230v-714h-263l-342 451h-2v-451h-230zM317 783h-96q34 145 162 145q30 0 71 -9l139 -29q18 -5 28 -5q27 0 43 35h93q-9 -65 -43 -106.5t-98 -41.5q-46 0 -193 35q-55 12 -60 12q-37 0 -46 -36z" />
    <glyph glyph-name="Ograve" unicode="&#xd2;" horiz-adv-x="1000" 
d="M35 357q0 379 465 379t465 -379t-465 -379t-465 379zM287 357q0 -109 57 -164t156 -55t156 55t57 164t-57 164t-156 55q-98 0 -155.5 -55.5t-57.5 -163.5zM435 780l-149 140h258l91 -140h-200z" />
    <glyph glyph-name="Oacute" unicode="&#xd3;" horiz-adv-x="1000" 
d="M35 357q0 379 465 379t465 -379t-465 -379t-465 379zM287 357q0 -109 57 -164t156 -55t156 55t57 164t-57 164t-156 55q-98 0 -155.5 -55.5t-57.5 -163.5zM410 780l91 140h258l-149 -140h-200z" />
    <glyph glyph-name="Ocircumflex" unicode="&#xd4;" horiz-adv-x="1000" 
d="M35 357q0 379 465 379t465 -379t-465 -379t-465 379zM287 357q0 -109 57 -164t156 -55t156 55t57 164t-57 164t-156 55q-98 0 -155.5 -55.5t-57.5 -163.5zM209 780l149 140h296l149 -140h-234l-71 77l-71 -77h-218z" />
    <glyph glyph-name="Otilde" unicode="&#xd5;" horiz-adv-x="1000" 
d="M35 357q0 379 465 379t465 -379t-465 -379t-465 379zM287 357q0 -109 57 -164t156 -55t156 55t57 164t-57 164t-156 55q-98 0 -155.5 -55.5t-57.5 -163.5zM327 783h-96q34 145 162 145q30 0 71 -9l139 -29q18 -5 28 -5q27 0 43 35h93q-9 -65 -43 -106.5t-98 -41.5
q-46 0 -193 35q-55 12 -60 12q-37 0 -46 -36z" />
    <glyph glyph-name="Odieresis" unicode="&#xd6;" horiz-adv-x="1000" 
d="M35 357q0 379 465 379t465 -379t-465 -379t-465 379zM287 357q0 -109 57 -164t156 -55t156 55t57 164t-57 164t-156 55q-98 0 -155.5 -55.5t-57.5 -163.5zM240 786v128h212v-128h-212zM546 786v128h212v-128h-212z" />
    <glyph glyph-name="multiply" unicode="&#xd7;" horiz-adv-x="600" 
d="M201 253l-143 143l99 99l143 -143l143 143l99 -99l-143 -143l143 -143l-99 -99l-143 143l-143 -143l-99 99z" />
    <glyph glyph-name="Oslash" unicode="&#xd8;" horiz-adv-x="1000" 
d="M307 250l341 277q-53 49 -148 49q-98 0 -155.5 -55.5t-57.5 -163.5q0 -61 20 -107zM693 464l-341 -277q52 -49 148 -49q99 0 156 55t57 164q0 61 -20 107zM31 26l91 74q-87 93 -87 257q0 379 465 379q202 0 316 -72l105 85l48 -61l-91 -74q87 -93 87 -257
q0 -379 -465 -379q-202 0 -316 72l-105 -85z" />
    <glyph glyph-name="Ugrave" unicode="&#xd9;" horiz-adv-x="926" 
d="M62 252v462h238v-423q0 -84 39 -118.5t124 -34.5t124 34.5t39 118.5v423h238v-462q0 -143 -102 -208.5t-299 -65.5t-299 65.5t-102 208.5zM372 780l-149 140h258l91 -140h-200z" />
    <glyph glyph-name="Uacute" unicode="&#xda;" horiz-adv-x="926" 
d="M62 252v462h238v-423q0 -84 39 -118.5t124 -34.5t124 34.5t39 118.5v423h238v-462q0 -143 -102 -208.5t-299 -65.5t-299 65.5t-102 208.5zM374 780l91 140h258l-149 -140h-200z" />
    <glyph glyph-name="Ucircumflex" unicode="&#xdb;" horiz-adv-x="926" 
d="M62 252v462h238v-423q0 -84 39 -118.5t124 -34.5t124 34.5t39 118.5v423h238v-462q0 -143 -102 -208.5t-299 -65.5t-299 65.5t-102 208.5zM174 780l149 140h296l149 -140h-234l-71 77l-71 -77h-218z" />
    <glyph glyph-name="Udieresis" unicode="&#xdc;" horiz-adv-x="926" 
d="M62 252v462h238v-423q0 -84 39 -118.5t124 -34.5t124 34.5t39 118.5v423h238v-462q0 -143 -102 -208.5t-299 -65.5t-299 65.5t-102 208.5zM203 786v128h212v-128h-212zM509 786v128h212v-128h-212z" />
    <glyph glyph-name="Yacute" unicode="&#xdd;" 
d="M288 0v225l-317 489h276l160 -303l160 303h276l-317 -489v-225h-238zM317 780l91 140h258l-149 -140h-200z" />
    <glyph glyph-name="Thorn" unicode="&#xde;" horiz-adv-x="889" 
d="M310 466v-180h212q50 0 72.5 21t22.5 69t-22.5 69t-72.5 21h-212zM72 0v714h238v-100h290q138 0 200.5 -64t62.5 -174q0 -47 -13 -87.5t-40.5 -75.5t-78.5 -55t-120 -20h-301v-138h-238z" />
    <glyph glyph-name="germandbls" unicode="&#xdf;" horiz-adv-x="833" 
d="M63 0v490q0 56 16.5 97.5t55 75.5t110 51.5t173.5 17.5q335 0 335 -192q0 -58 -28.5 -89.5t-70.5 -38.5v-2q63 -10 102.5 -59.5t39.5 -134.5q0 -110 -81 -169t-215 -59q-99 0 -163 19v148q59 -13 108 -13q127 0 127 99q0 89 -150 89h-66v122h51q116 0 116 63
q0 69 -109 69q-83 0 -111 -33t-28 -104v-447h-212z" />
    <glyph glyph-name="agrave" unicode="&#xe0;" 
d="M276 372h-212q6 47 27.5 81t52 53.5t75 31t87 15t97.5 3.5q80 0 138 -7.5t107.5 -27t74.5 -57t25 -92.5v-274q0 -54 22 -98h-212q-9 21 -11 50q-43 -41 -104.5 -56.5t-150.5 -15.5q-265 0 -265 169q0 89 57 128.5t177 48.5l211 14q39 3 51.5 12.5t12.5 31.5q0 58 -134 58
q-59 0 -88.5 -16t-37.5 -52zM542 220v33q-26 -7 -81 -15l-143 -17q-61 -7 -61 -55q0 -32 25.5 -49t69.5 -17q91 0 140.5 31.5t49.5 88.5zM352 600l-149 140h258l91 -140h-200z" />
    <glyph glyph-name="aacute" unicode="&#xe1;" 
d="M276 372h-212q6 47 27.5 81t52 53.5t75 31t87 15t97.5 3.5q80 0 138 -7.5t107.5 -27t74.5 -57t25 -92.5v-274q0 -54 22 -98h-212q-9 21 -11 50q-43 -41 -104.5 -56.5t-150.5 -15.5q-265 0 -265 169q0 89 57 128.5t177 48.5l211 14q39 3 51.5 12.5t12.5 31.5q0 58 -134 58
q-59 0 -88.5 -16t-37.5 -52zM542 220v33q-26 -7 -81 -15l-143 -17q-61 -7 -61 -55q0 -32 25.5 -49t69.5 -17q91 0 140.5 31.5t49.5 88.5zM315 600l91 140h258l-149 -140h-200z" />
    <glyph glyph-name="acircumflex" unicode="&#xe2;" 
d="M276 372h-212q6 47 27.5 81t52 53.5t75 31t87 15t97.5 3.5q80 0 138 -7.5t107.5 -27t74.5 -57t25 -92.5v-274q0 -54 22 -98h-212q-9 21 -11 50q-43 -41 -104.5 -56.5t-150.5 -15.5q-265 0 -265 169q0 89 57 128.5t177 48.5l211 14q39 3 51.5 12.5t12.5 31.5q0 58 -134 58
q-59 0 -88.5 -16t-37.5 -52zM542 220v33q-26 -7 -81 -15l-143 -17q-61 -7 -61 -55q0 -32 25.5 -49t69.5 -17q91 0 140.5 31.5t49.5 88.5zM119 600l149 140h296l149 -140h-234l-71 77l-71 -77h-218z" />
    <glyph glyph-name="atilde" unicode="&#xe3;" 
d="M276 372h-212q6 47 27.5 81t52 53.5t75 31t87 15t97.5 3.5q80 0 138 -7.5t107.5 -27t74.5 -57t25 -92.5v-274q0 -54 22 -98h-212q-9 21 -11 50q-43 -41 -104.5 -56.5t-150.5 -15.5q-265 0 -265 169q0 89 57 128.5t177 48.5l211 14q39 3 51.5 12.5t12.5 31.5q0 58 -134 58
q-59 0 -88.5 -16t-37.5 -52zM542 220v33q-26 -7 -81 -15l-143 -17q-61 -7 -61 -55q0 -32 25.5 -49t69.5 -17q91 0 140.5 31.5t49.5 88.5zM236 603h-96q34 145 162 145q30 0 71 -9l139 -29q18 -5 28 -5q27 0 43 35h93q-9 -65 -43 -106.5t-98 -41.5q-46 0 -193 35
q-55 12 -60 12q-37 0 -46 -36z" />
    <glyph glyph-name="adieresis" unicode="&#xe4;" 
d="M276 372h-212q6 47 27.5 81t52 53.5t75 31t87 15t97.5 3.5q80 0 138 -7.5t107.5 -27t74.5 -57t25 -92.5v-274q0 -54 22 -98h-212q-9 21 -11 50q-43 -41 -104.5 -56.5t-150.5 -15.5q-265 0 -265 169q0 89 57 128.5t177 48.5l211 14q39 3 51.5 12.5t12.5 31.5q0 58 -134 58
q-59 0 -88.5 -16t-37.5 -52zM542 220v33q-26 -7 -81 -15l-143 -17q-61 -7 -61 -55q0 -32 25.5 -49t69.5 -17q91 0 140.5 31.5t49.5 88.5zM151 606v128h212v-128h-212zM457 606v128h212v-128h-212z" />
    <glyph glyph-name="aring" unicode="&#xe5;" 
d="M276 372h-212q6 47 27.5 81t52 53.5t75 31t87 15t97.5 3.5q80 0 138 -7.5t107.5 -27t74.5 -57t25 -92.5v-274q0 -54 22 -98h-212q-9 21 -11 50q-43 -41 -104.5 -56.5t-150.5 -15.5q-265 0 -265 169q0 89 57 128.5t177 48.5l211 14q39 3 51.5 12.5t12.5 31.5q0 58 -134 58
q-59 0 -88.5 -16t-37.5 -52zM542 220v33q-26 -7 -81 -15l-143 -17q-61 -7 -61 -55q0 -32 25.5 -49t69.5 -17q91 0 140.5 31.5t49.5 88.5zM272 720q0 56 39 92t95 36t95 -36t39 -92t-38.5 -91.5t-95.5 -35.5t-95.5 35.5t-38.5 91.5zM348 720q0 -24 17 -41t41 -17t41 17t17 41
t-17 41t-41 17t-41 -17t-17 -41z" />
    <glyph glyph-name="ae" unicode="&#xe6;" horiz-adv-x="1167" 
d="M266 372h-202q11 63 42.5 104t81 59t93 23.5t104.5 5.5q150 0 221 -62q29 29 85 45.5t115 16.5q166 0 247.5 -84t81.5 -233v-26h-463q4 -51 37.5 -86t100.5 -35q34 0 58 10t34 21t20 29h206q-32 -95 -113 -138.5t-190 -43.5q-167 0 -239 87q-37 -40 -109.5 -63.5
t-166.5 -23.5q-135 0 -206.5 40.5t-71.5 137.5q0 79 55.5 118t182.5 48q28 2 83 5.5t83 5.5q60 4 60 47q0 34 -26.5 48t-82.5 14q-58 0 -87.5 -15t-33.5 -55zM672 325h271q-9 52 -42.5 84.5t-94.5 32.5q-59 0 -92 -32.5t-42 -84.5zM498 218v30q-18 -9 -52 -14t-75 -7.5
t-57 -5.5q-70 -8 -70 -60q0 -61 95 -61q82 0 120.5 28t38.5 90z" />
    <glyph glyph-name="ccedilla" unicode="&#xe7;" 
d="M264 -197l18 53q48 -16 81 -16q22 0 34.5 10t12.5 24q0 25 -39 25q-15 0 -36 -7l-25 20l47 68q-141 9 -225 69q-100 72 -100 222q0 144 100.5 218.5t279.5 74.5q339 0 365 -233h-218q-17 93 -144 93q-76 0 -117.5 -39.5t-41.5 -113.5t41.5 -113.5t118.5 -39.5
q125 0 147 103h224q-19 -91 -71.5 -147.5t-149.5 -79.5q-58 -14 -141 -16l-21 -29q32 5 47 5q37 0 68 -19.5t31 -59.5q0 -45 -37 -70t-106 -25q-83 0 -143 23z" />
    <glyph glyph-name="egrave" unicode="&#xe8;" 
d="M250 331h314q-26 111 -157 111q-71 0 -109.5 -31t-47.5 -80zM548 161h224q-22 -77 -111 -130t-249 -53q-380 0 -380 294q0 141 101 216.5t273 75.5q179 0 277.5 -81t98.5 -246v-16h-532q19 -121 170 -121q80 0 128 61zM347 600l-149 140h258l91 -140h-200z" />
    <glyph glyph-name="eacute" unicode="&#xe9;" 
d="M250 331h314q-26 111 -157 111q-71 0 -109.5 -31t-47.5 -80zM548 161h224q-22 -77 -111 -130t-249 -53q-380 0 -380 294q0 141 101 216.5t273 75.5q179 0 277.5 -81t98.5 -246v-16h-532q19 -121 170 -121q80 0 128 61zM320 600l91 140h258l-149 -140h-200z" />
    <glyph glyph-name="ecircumflex" unicode="&#xea;" 
d="M250 331h314q-26 111 -157 111q-71 0 -109.5 -31t-47.5 -80zM548 161h224q-22 -77 -111 -130t-249 -53q-380 0 -380 294q0 141 101 216.5t273 75.5q179 0 277.5 -81t98.5 -246v-16h-532q19 -121 170 -121q80 0 128 61zM122 600l149 140h296l149 -140h-234l-71 77l-71 -77
h-218z" />
    <glyph glyph-name="edieresis" unicode="&#xeb;" 
d="M250 331h314q-26 111 -157 111q-71 0 -109.5 -31t-47.5 -80zM548 161h224q-22 -77 -111 -130t-249 -53q-380 0 -380 294q0 141 101 216.5t273 75.5q179 0 277.5 -81t98.5 -246v-16h-532q19 -121 170 -121q80 0 128 61zM153 606v128h212v-128h-212zM459 606v128h212v-128
h-212z" />
    <glyph glyph-name="igrave" unicode="&#xec;" horiz-adv-x="332" 
d="M60 0v542h212v-542h-212zM73 600l-149 140h258l91 -140h-200z" />
    <glyph glyph-name="iacute" unicode="&#xed;" horiz-adv-x="332" 
d="M60 0v542h212v-542h-212zM61 600l91 140h258l-149 -140h-200z" />
    <glyph glyph-name="icircumflex" unicode="&#xee;" horiz-adv-x="332" 
d="M60 0v542h212v-542h-212zM-131 600l149 140h296l149 -140h-234l-71 77l-71 -77h-218z" />
    <glyph glyph-name="idieresis" unicode="&#xef;" horiz-adv-x="332" 
d="M60 0v542h212v-542h-212zM-93 606v128h212v-128h-212zM213 606v128h212v-128h-212z" />
    <glyph glyph-name="eth" unicode="&#xf0;" 
d="M251 241q0 -123 156 -123q77 0 116.5 32t39.5 91t-39.5 91t-116.5 32t-116.5 -32t-39.5 -91zM142 580l117 51q-55 18 -107 33l112 111q102 -16 195 -55l121 53l74 -48l-107 -47q240 -143 240 -390q0 -160 -96.5 -235t-283.5 -75q-186 0 -283 68.5t-97 204.5
q0 83 46.5 142t116 85t152.5 26q108 0 168 -42l2 2q-46 76 -158 128l-146 -64z" />
    <glyph glyph-name="ntilde" unicode="&#xf1;" horiz-adv-x="778" 
d="M56 0v542h206v-78h2q75 92 228 92q104 0 167 -50.5t63 -148.5v-357h-212v293q0 103 -110 103q-59 0 -95.5 -33t-36.5 -97v-266h-212zM217 603h-96q34 145 162 145q30 0 71 -9l139 -29q18 -5 28 -5q27 0 43 35h93q-9 -65 -43 -106.5t-98 -41.5q-46 0 -193 35
q-55 12 -60 12q-37 0 -46 -36z" />
    <glyph glyph-name="ograve" unicode="&#xf2;" 
d="M407 424q-74 0 -115 -38.5t-41 -114.5t41 -114.5t115 -38.5t115 38.5t41 114.5t-41 114.5t-115 38.5zM27 271q0 144 97 218.5t283 74.5t283 -74.5t97 -218.5t-97 -218.5t-283 -74.5t-283 74.5t-97 218.5zM337 600l-149 140h258l91 -140h-200z" />
    <glyph glyph-name="oacute" unicode="&#xf3;" 
d="M407 424q-74 0 -115 -38.5t-41 -114.5t41 -114.5t115 -38.5t115 38.5t41 114.5t-41 114.5t-115 38.5zM27 271q0 144 97 218.5t283 74.5t283 -74.5t97 -218.5t-97 -218.5t-283 -74.5t-283 74.5t-97 218.5zM320 600l91 140h258l-149 -140h-200z" />
    <glyph glyph-name="ocircumflex" unicode="&#xf4;" 
d="M407 424q-74 0 -115 -38.5t-41 -114.5t41 -114.5t115 -38.5t115 38.5t41 114.5t-41 114.5t-115 38.5zM27 271q0 144 97 218.5t283 74.5t283 -74.5t97 -218.5t-97 -218.5t-283 -74.5t-283 74.5t-97 218.5zM118 600l149 140h296l149 -140h-234l-71 77l-71 -77h-218z" />
    <glyph glyph-name="otilde" unicode="&#xf5;" 
d="M407 424q-74 0 -115 -38.5t-41 -114.5t41 -114.5t115 -38.5t115 38.5t41 114.5t-41 114.5t-115 38.5zM27 271q0 144 97 218.5t283 74.5t283 -74.5t97 -218.5t-97 -218.5t-283 -74.5t-283 74.5t-97 218.5zM236 603h-96q34 145 162 145q30 0 71 -9l139 -29q18 -5 28 -5
q27 0 43 35h93q-9 -65 -43 -106.5t-98 -41.5q-46 0 -193 35q-55 12 -60 12q-37 0 -46 -36z" />
    <glyph glyph-name="odieresis" unicode="&#xf6;" 
d="M407 424q-74 0 -115 -38.5t-41 -114.5t41 -114.5t115 -38.5t115 38.5t41 114.5t-41 114.5t-115 38.5zM27 271q0 144 97 218.5t283 74.5t283 -74.5t97 -218.5t-97 -218.5t-283 -74.5t-283 74.5t-97 218.5zM148 606v128h212v-128h-212zM454 606v128h212v-128h-212z" />
    <glyph glyph-name="divide" unicode="&#xf7;" horiz-adv-x="600" 
d="M47 183v140h506v-140h-506zM201 465q0 42 28.5 70.5t70.5 28.5t70.5 -28.5t28.5 -70.5t-28.5 -70.5t-70.5 -28.5t-70.5 28.5t-28.5 70.5zM201 41q0 42 28.5 70.5t70.5 28.5t70.5 -28.5t28.5 -70.5t-28.5 -70.5t-70.5 -28.5t-70.5 28.5t-28.5 70.5z" />
    <glyph glyph-name="oslash" unicode="&#xf8;" 
d="M20 15l79 61q-72 74 -72 195q0 144 97 218.5t283 74.5q159 0 254 -56l93 72l40 -53l-79 -61q72 -72 72 -195q0 -144 -97 -218.5t-283 -74.5q-162 0 -254 56l-93 -72zM263 202l248 191q-37 31 -104 31q-74 0 -115 -38.5t-41 -114.5q0 -41 12 -69zM551 340l-248 -191
q37 -31 104 -31q74 0 115 38.5t41 114.5q0 41 -12 69z" />
    <glyph glyph-name="ugrave" unicode="&#xf9;" horiz-adv-x="778" 
d="M56 197v345h212v-280q0 -67 27 -95.5t83 -28.5q59 0 95.5 33t36.5 97v274h212v-542h-206v70h-2q-75 -92 -228 -92q-230 0 -230 219zM294 600l-149 140h258l91 -140h-200z" />
    <glyph glyph-name="uacute" unicode="&#xfa;" horiz-adv-x="778" 
d="M56 197v345h212v-280q0 -67 27 -95.5t83 -28.5q59 0 95.5 33t36.5 97v274h212v-542h-206v70h-2q-75 -92 -228 -92q-230 0 -230 219zM297 600l91 140h258l-149 -140h-200z" />
    <glyph glyph-name="ucircumflex" unicode="&#xfb;" horiz-adv-x="778" 
d="M56 197v345h212v-280q0 -67 27 -95.5t83 -28.5q59 0 95.5 33t36.5 97v274h212v-542h-206v70h-2q-75 -92 -228 -92q-230 0 -230 219zM92 600l149 140h296l149 -140h-234l-71 77l-71 -77h-218z" />
    <glyph glyph-name="udieresis" unicode="&#xfc;" horiz-adv-x="778" 
d="M56 197v345h212v-280q0 -67 27 -95.5t83 -28.5q59 0 95.5 33t36.5 97v274h212v-542h-206v70h-2q-75 -92 -228 -92q-230 0 -230 219zM130 606v128h212v-128h-212zM436 606v128h212v-128h-212z" />
    <glyph glyph-name="yacute" unicode="&#xfd;" horiz-adv-x="685" 
d="M64 -190v134h51q34 0 55.5 6.5t28 13t13.5 19.5l24 48l-255 511h230l137 -322l132 322h224l-288 -610q-33 -70 -72.5 -99t-130.5 -29q-67 0 -149 6zM257 600l91 140h258l-149 -140h-200z" />
    <glyph glyph-name="thorn" unicode="&#xfe;" 
d="M56 -196v928h212v-262h2q27 43 90 64.5t119 21.5q134 0 221 -74.5t87 -214.5q0 -131 -89 -210t-219 -79q-140 0 -209 71h-2v-245h-212zM268 270q0 -64 38.5 -101t112.5 -37q73 0 111.5 35t38.5 103t-38.5 103t-111.5 35q-74 0 -112.5 -37t-38.5 -101z" />
    <glyph glyph-name="ydieresis" unicode="&#xff;" horiz-adv-x="685" 
d="M64 -190v134h51q34 0 55.5 6.5t28 13t13.5 19.5l24 48l-255 511h230l137 -322l132 322h224l-288 -610q-33 -70 -72.5 -99t-130.5 -29q-67 0 -149 6zM88 606v128h212v-128h-212zM394 606v128h212v-128h-212z" />
    <glyph glyph-name="Amacron" unicode="&#x100;" horiz-adv-x="852" 
d="M-28 0l310 714h291l307 -714h-255l-43 116h-312l-43 -116h-255zM526 264l-99 270h-2l-99 -270h200zM166 792v116h526v-116h-526z" />
    <glyph glyph-name="amacron" unicode="&#x101;" 
d="M276 372h-212q6 47 27.5 81t52 53.5t75 31t87 15t97.5 3.5q80 0 138 -7.5t107.5 -27t74.5 -57t25 -92.5v-274q0 -54 22 -98h-212q-9 21 -11 50q-43 -41 -104.5 -56.5t-150.5 -15.5q-265 0 -265 169q0 89 57 128.5t177 48.5l211 14q39 3 51.5 12.5t12.5 31.5q0 58 -134 58
q-59 0 -88.5 -16t-37.5 -52zM542 220v33q-26 -7 -81 -15l-143 -17q-61 -7 -61 -55q0 -32 25.5 -49t69.5 -17q91 0 140.5 31.5t49.5 88.5zM151 612v116h526v-116h-526z" />
    <glyph glyph-name="Abreve" unicode="&#x102;" horiz-adv-x="852" 
d="M-28 0l310 714h291l307 -714h-255l-43 116h-312l-43 -116h-255zM526 264l-99 270h-2l-99 -270h200zM205 928h116q6 -28 33 -40q28 -12 75 -12q50 0 76 12t32 40h116q-12 -84 -69 -121q-55 -35 -155 -35q-102 0 -157 36t-67 120z" />
    <glyph glyph-name="abreve" unicode="&#x103;" 
d="M276 372h-212q6 47 27.5 81t52 53.5t75 31t87 15t97.5 3.5q80 0 138 -7.5t107.5 -27t74.5 -57t25 -92.5v-274q0 -54 22 -98h-212q-9 21 -11 50q-43 -41 -104.5 -56.5t-150.5 -15.5q-265 0 -265 169q0 89 57 128.5t177 48.5l211 14q39 3 51.5 12.5t12.5 31.5q0 58 -134 58
q-59 0 -88.5 -16t-37.5 -52zM542 220v33q-26 -7 -81 -15l-143 -17q-61 -7 -61 -55q0 -32 25.5 -49t69.5 -17q91 0 140.5 31.5t49.5 88.5zM186 748h116q6 -28 33 -40q29 -12 75 -12q50 0 76 12t32 40h116q-12 -84 -69 -121q-55 -35 -155 -35q-102 0 -157 36t-67 120z" />
    <glyph glyph-name="Aogonek" unicode="&#x104;" horiz-adv-x="852" 
d="M880 0h-165q-60 -55 -74 -70q-19 -22 -19 -43q0 -38 36 -38q27 0 70 16l23 -56q-73 -29 -142 -29q-63 0 -94 24t-31 64q0 81 141 132l-43 116h-312l-43 -116h-255l310 714h291zM526 264l-99 270h-2l-99 -270h200z" />
    <glyph glyph-name="aogonek" unicode="&#x105;" 
d="M276 372h-212q6 47 27.5 81t52 53.5t75 31t87 15t97.5 3.5q80 0 138 -7.5t107.5 -27t74.5 -57t25 -92.5v-274q0 -54 22 -98h-109q-58 -52 -71 -70q-15 -22 -15 -43q0 -38 35 -38q25 0 66 16l22 -56q-67 -29 -135 -29q-60 0 -89.5 24t-29.5 64q0 45 37 78q36 31 77 54
q-9 21 -11 50q-43 -41 -104.5 -56.5t-150.5 -15.5q-265 0 -265 169q0 89 57 128.5t177 48.5l211 14q39 3 51.5 12.5t12.5 31.5q0 58 -134 58q-59 0 -88.5 -16t-37.5 -52zM542 220v33q-26 -7 -81 -15l-143 -17q-61 -7 -61 -55q0 -32 25.5 -49t69.5 -17q91 0 140.5 31.5
t49.5 88.5z" />
    <glyph glyph-name="Cacute" unicode="&#x106;" horiz-adv-x="963" 
d="M672 275h264q-12 -65 -36 -113t-72.5 -92.5t-135 -68t-208.5 -23.5q-449 0 -449 379q0 184 110.5 281.5t338.5 97.5q71 0 126.5 -7t110.5 -26.5t95 -52t71.5 -85.5t46.5 -126h-265q-37 137 -184 137q-105 0 -151.5 -60.5t-46.5 -158.5q0 -219 198 -219q79 0 127 36.5
t60 100.5zM397 780l91 140h258l-149 -140h-200z" />
    <glyph glyph-name="cacute" unicode="&#x107;" 
d="M563 221h224q-25 -121 -113.5 -182t-261.5 -61q-184 0 -282 73t-98 220q0 144 100.5 218.5t279.5 74.5q339 0 365 -233h-218q-17 93 -144 93q-76 0 -117.5 -39.5t-41.5 -113.5t41.5 -113.5t118.5 -39.5q125 0 147 103zM326 600l91 140h258l-149 -140h-200z" />
    <glyph glyph-name="Ccircumflex" unicode="&#x108;" horiz-adv-x="963" 
d="M672 275h264q-12 -65 -36 -113t-72.5 -92.5t-135 -68t-208.5 -23.5q-449 0 -449 379q0 184 110.5 281.5t338.5 97.5q71 0 126.5 -7t110.5 -26.5t95 -52t71.5 -85.5t46.5 -126h-265q-37 137 -184 137q-105 0 -151.5 -60.5t-46.5 -158.5q0 -219 198 -219q79 0 127 36.5
t60 100.5zM203 780l149 140h296l149 -140h-234l-71 77l-71 -77h-218z" />
    <glyph glyph-name="ccircumflex" unicode="&#x109;" 
d="M563 221h224q-25 -121 -113.5 -182t-261.5 -61q-184 0 -282 73t-98 220q0 144 100.5 218.5t279.5 74.5q339 0 365 -233h-218q-17 93 -144 93q-76 0 -117.5 -39.5t-41.5 -113.5t41.5 -113.5t118.5 -39.5q125 0 147 103zM121 600l149 140h296l149 -140h-234l-71 77l-71 -77
h-218z" />
    <glyph glyph-name="Cdotaccent" unicode="&#x10a;" horiz-adv-x="963" 
d="M672 275h264q-12 -65 -36 -113t-72.5 -92.5t-135 -68t-208.5 -23.5q-449 0 -449 379q0 184 110.5 281.5t338.5 97.5q71 0 126.5 -7t110.5 -26.5t95 -52t71.5 -85.5t46.5 -126h-265q-37 137 -184 137q-105 0 -151.5 -60.5t-46.5 -158.5q0 -219 198 -219q79 0 127 36.5
t60 100.5zM380 786v128h212v-128h-212z" />
    <glyph glyph-name="cdotaccent" unicode="&#x10b;" 
d="M563 221h224q-25 -121 -113.5 -182t-261.5 -61q-184 0 -282 73t-98 220q0 144 100.5 218.5t279.5 74.5q339 0 365 -233h-218q-17 93 -144 93q-76 0 -117.5 -39.5t-41.5 -113.5t41.5 -113.5t118.5 -39.5q125 0 147 103zM305 606v128h212v-128h-212z" />
    <glyph glyph-name="Ccaron" unicode="&#x10c;" horiz-adv-x="963" 
d="M672 275h264q-12 -65 -36 -113t-72.5 -92.5t-135 -68t-208.5 -23.5q-449 0 -449 379q0 184 110.5 281.5t338.5 97.5q71 0 126.5 -7t110.5 -26.5t95 -52t71.5 -85.5t46.5 -126h-265q-37 137 -184 137q-105 0 -151.5 -60.5t-46.5 -158.5q0 -219 198 -219q79 0 127 36.5
t60 100.5zM332 780l-149 140h234l71 -77l71 77h218l-149 -140h-296z" />
    <glyph glyph-name="ccaron" unicode="&#x10d;" 
d="M563 221h224q-25 -121 -113.5 -182t-261.5 -61q-184 0 -282 73t-98 220q0 144 100.5 218.5t279.5 74.5q339 0 365 -233h-218q-17 93 -144 93q-76 0 -117.5 -39.5t-41.5 -113.5t41.5 -113.5t118.5 -39.5q125 0 147 103zM261 600l-149 140h234l71 -77l71 77h218l-149 -140
h-296z" />
    <glyph glyph-name="Dcaron" unicode="&#x10e;" horiz-adv-x="963" 
d="M72 0v714h516q340 0 340 -357q0 -102 -28.5 -173.5t-81 -110.5t-116 -56t-145.5 -17h-485zM310 554v-394h199q49 0 84 16.5t53.5 46t27 62.5t8.5 73q0 196 -192 196h-180zM303 780l-149 140h234l71 -77l71 77h218l-149 -140h-296z" />
    <glyph glyph-name="dcaron" unicode="&#x10f;" horiz-adv-x="998" 
d="M552 0v64h-2q-69 -86 -206 -86q-146 0 -231.5 77.5t-85.5 216.5q0 121 85 202.5t230 81.5t202 -83h2v257h212v-730h-206zM546 270q0 64 -38.5 101t-112.5 37q-73 0 -111.5 -35t-38.5 -103t38.5 -103t111.5 -35q74 0 112.5 37t38.5 101zM803 565l35 160h200l-83 -160h-152
z" />
    <glyph glyph-name="Dcroat" unicode="&#x110;" horiz-adv-x="963" 
d="M72 0v291h-72v134h72v289h516q340 0 340 -357q0 -102 -28.5 -173.5t-81 -110.5t-116 -56t-145.5 -17h-485zM466 425v-134h-156v-131h199q49 0 84 16.5t53.5 46t27 62.5t8.5 73q0 196 -192 196h-180v-129h156z" />
    <glyph glyph-name="dcroat" unicode="&#x111;" horiz-adv-x="884" 
d="M552 0v64h-2q-69 -86 -206 -86q-146 0 -231.5 77.5t-85.5 216.5q0 121 85 202.5t230 81.5t202 -83h2v107h-166v91h166v59h212v-59h121v-91h-121v-580h-206zM546 270q0 64 -38.5 101t-112.5 37q-73 0 -111.5 -35t-38.5 -103t38.5 -103t111.5 -35q74 0 112.5 37t38.5 101z
" />
    <glyph glyph-name="Emacron" unicode="&#x112;" horiz-adv-x="815" 
d="M72 0v714h715v-154h-477v-129h447v-148h-447v-129h477v-154h-715zM166 792v116h526v-116h-526z" />
    <glyph glyph-name="emacron" unicode="&#x113;" 
d="M250 331h314q-26 111 -157 111q-71 0 -109.5 -31t-47.5 -80zM548 161h224q-22 -77 -111 -130t-249 -53q-380 0 -380 294q0 141 101 216.5t273 75.5q179 0 277.5 -81t98.5 -246v-16h-532q19 -121 170 -121q80 0 128 61zM153 612v116h526v-116h-526z" />
    <glyph glyph-name="Ebreve" unicode="&#x114;" horiz-adv-x="815" 
d="M72 0v714h715v-154h-477v-129h447v-148h-447v-129h477v-154h-715zM200 928h116q6 -28 33 -40q29 -12 75 -12q50 0 76 12t32 40h116q-12 -84 -69 -121q-55 -35 -155 -35q-102 0 -157 36t-67 120z" />
    <glyph glyph-name="ebreve" unicode="&#x115;" 
d="M250 331h314q-26 111 -157 111q-71 0 -109.5 -31t-47.5 -80zM548 161h224q-22 -77 -111 -130t-249 -53q-380 0 -380 294q0 141 101 216.5t273 75.5q179 0 277.5 -81t98.5 -246v-16h-532q19 -121 170 -121q80 0 128 61zM186 748h116q6 -28 33 -40q29 -12 75 -12
q50 0 76 12t32 40h116q-12 -84 -69 -121q-55 -35 -155 -35q-102 0 -157 36t-67 120z" />
    <glyph glyph-name="Edotaccent" unicode="&#x116;" horiz-adv-x="815" 
d="M72 0v714h715v-154h-477v-129h447v-148h-447v-129h477v-154h-715zM323 786v128h212v-128h-212z" />
    <glyph glyph-name="edotaccent" unicode="&#x117;" 
d="M250 331h314q-26 111 -157 111q-71 0 -109.5 -31t-47.5 -80zM548 161h224q-22 -77 -111 -130t-249 -53q-380 0 -380 294q0 141 101 216.5t273 75.5q179 0 277.5 -81t98.5 -246v-16h-532q19 -121 170 -121q80 0 128 61zM304 606v128h212v-128h-212z" />
    <glyph glyph-name="Eogonek" unicode="&#x118;" horiz-adv-x="815" 
d="M787 0h-34q-60 -55 -74 -70q-19 -22 -19 -43q0 -38 36 -38q27 0 70 16l23 -56q-73 -29 -142 -29q-63 0 -94 24t-31 64q0 81 141 132h-591v714h715v-154h-477v-129h447v-148h-447v-129h477v-154z" />
    <glyph glyph-name="eogonek" unicode="&#x119;" 
d="M548 161h224q-36 -123 -210 -167q-33 -8 -85 -13q-24 -23 -52 -51q-19 -22 -19 -43q0 -38 36 -38q27 0 70 16l23 -56q-73 -29 -142 -29q-63 0 -94 24t-31 64q0 45 40 78q19 16 53 34q-145 9 -231 69q-98 72 -98 223q0 141 101 216.5t273 75.5q179 0 277.5 -81t98.5 -246
v-16h-532q19 -121 170 -121q80 0 128 61zM250 331h314q-26 111 -157 111q-71 0 -109.5 -31t-47.5 -80z" />
    <glyph glyph-name="Ecaron" unicode="&#x11a;" horiz-adv-x="815" 
d="M72 0v714h715v-154h-477v-129h447v-148h-447v-129h477v-154h-715zM276 780l-149 140h234l71 -77l71 77h218l-149 -140h-296z" />
    <glyph glyph-name="ecaron" unicode="&#x11b;" 
d="M250 331h314q-26 111 -157 111q-71 0 -109.5 -31t-47.5 -80zM548 161h224q-22 -77 -111 -130t-249 -53q-380 0 -380 294q0 141 101 216.5t273 75.5q179 0 277.5 -81t98.5 -246v-16h-532q19 -121 170 -121q80 0 128 61zM269 600l-149 140h234l71 -77l71 77h218l-149 -140
h-296z" />
    <glyph glyph-name="Gcircumflex" unicode="&#x11c;" horiz-adv-x="1000" 
d="M548 257v148h384v-405h-111l-29 74q-34 -36 -110 -66t-198 -30q-230 0 -339.5 95.5t-109.5 283.5q0 168 113.5 273.5t334.5 105.5q80 0 150 -12t136 -39t109.5 -79.5t53.5 -126.5h-269q-30 103 -170 103q-105 0 -158.5 -63t-53.5 -163q0 -99 53.5 -161.5t158.5 -62.5
q166 0 201 125h-146zM204 780l149 140h296l149 -140h-234l-71 77l-71 -77h-218z" />
    <glyph glyph-name="gcircumflex" unicode="&#x11d;" horiz-adv-x="833" 
d="M571 473v69h206v-493q0 -137 -83.5 -197t-277.5 -60q-85 0 -146 8.5t-111 28.5t-78.5 57t-36.5 92h234q14 -64 129 -64q88 0 123 32.5t35 108.5v38q-69 -69 -217 -69q-163 0 -242 73t-79 193q0 115 82.5 190.5t238.5 75.5q160 0 221 -83h2zM251 287q0 -57 39.5 -93
t116.5 -36q158 0 158 127q0 60 -39.5 95.5t-118.5 35.5q-77 0 -116.5 -36t-39.5 -93zM132 600l149 140h296l149 -140h-234l-71 77l-71 -77h-218z" />
    <glyph glyph-name="Gbreve" unicode="&#x11e;" horiz-adv-x="1000" 
d="M548 257v148h384v-405h-111l-29 74q-34 -36 -110 -66t-198 -30q-230 0 -339.5 95.5t-109.5 283.5q0 168 113.5 273.5t334.5 105.5q80 0 150 -12t136 -39t109.5 -79.5t53.5 -126.5h-269q-30 103 -170 103q-105 0 -158.5 -63t-53.5 -163q0 -99 53.5 -161.5t158.5 -62.5
q166 0 201 125h-146zM272 928h116q6 -28 33 -40q29 -12 75 -12q50 0 76 12t32 40h116q-12 -84 -69 -121q-55 -35 -155 -35q-102 0 -157 36t-67 120z" />
    <glyph glyph-name="gbreve" unicode="&#x11f;" horiz-adv-x="833" 
d="M571 473v69h206v-493q0 -137 -83.5 -197t-277.5 -60q-85 0 -146 8.5t-111 28.5t-78.5 57t-36.5 92h234q14 -64 129 -64q88 0 123 32.5t35 108.5v38q-69 -69 -217 -69q-163 0 -242 73t-79 193q0 115 82.5 190.5t238.5 75.5q160 0 221 -83h2zM251 287q0 -57 39.5 -93
t116.5 -36q158 0 158 127q0 60 -39.5 95.5t-118.5 35.5q-77 0 -116.5 -36t-39.5 -93zM200 748h116q6 -28 33 -40q29 -12 75 -12q50 0 76 12t32 40h116q-12 -84 -69 -121q-55 -35 -155 -35q-102 0 -157 36t-67 120z" />
    <glyph glyph-name="Gdotaccent" unicode="&#x120;" horiz-adv-x="1000" 
d="M548 257v148h384v-405h-111l-29 74q-34 -36 -110 -66t-198 -30q-230 0 -339.5 95.5t-109.5 283.5q0 168 113.5 273.5t334.5 105.5q80 0 150 -12t136 -39t109.5 -79.5t53.5 -126.5h-269q-30 103 -170 103q-105 0 -158.5 -63t-53.5 -163q0 -99 53.5 -161.5t158.5 -62.5
q166 0 201 125h-146zM387 786v128h212v-128h-212z" />
    <glyph glyph-name="gdotaccent" unicode="&#x121;" horiz-adv-x="833" 
d="M571 473v69h206v-493q0 -137 -83.5 -197t-277.5 -60q-85 0 -146 8.5t-111 28.5t-78.5 57t-36.5 92h234q14 -64 129 -64q88 0 123 32.5t35 108.5v38q-69 -69 -217 -69q-163 0 -242 73t-79 193q0 115 82.5 190.5t238.5 75.5q160 0 221 -83h2zM251 287q0 -57 39.5 -93
t116.5 -36q158 0 158 127q0 60 -39.5 95.5t-118.5 35.5q-77 0 -116.5 -36t-39.5 -93zM308 606v128h212v-128h-212z" />
    <glyph glyph-name="Gcommaaccent" unicode="&#x122;" horiz-adv-x="1000" 
d="M548 257v148h384v-405h-111l-29 74q-34 -36 -110 -66t-198 -30q-230 0 -339.5 95.5t-109.5 283.5q0 168 113.5 273.5t334.5 105.5q80 0 150 -12t136 -39t109.5 -79.5t53.5 -126.5h-269q-30 103 -170 103q-105 0 -158.5 -63t-53.5 -163q0 -99 53.5 -161.5t158.5 -62.5
q166 0 201 125h-146zM375 -158v108h208v-76q0 -31 -13 -54q-12 -25 -44 -40t-111 -15v45q51 5 56 32h-96z" />
    <glyph glyph-name="gcommaaccent" unicode="&#x123;" horiz-adv-x="833" 
d="M571 473v69h206v-493q0 -137 -83.5 -197t-277.5 -60q-85 0 -146 8.5t-111 28.5t-78.5 57t-36.5 92h234q14 -64 129 -64q88 0 123 32.5t35 108.5v38q-69 -69 -217 -69q-163 0 -242 73t-79 193q0 115 82.5 190.5t238.5 75.5q160 0 221 -83h2zM251 287q0 -57 39.5 -93
t116.5 -36q158 0 158 127q0 60 -39.5 95.5t-118.5 35.5q-77 0 -116.5 -36t-39.5 -93zM515 732v-108h-208v76q0 30 12 54q13 25 45 40t111 15v-45q-51 -5 -56 -32h96z" />
    <glyph glyph-name="Hcircumflex" unicode="&#x124;" horiz-adv-x="981" 
d="M671 0v299h-361v-299h-238v714h238v-255h361v255h238v-714h-238zM198 780l149 140h296l149 -140h-234l-71 77l-71 -77h-218z" />
    <glyph glyph-name="hcircumflex" unicode="&#x125;" horiz-adv-x="778" 
d="M56 0v732h212v-268h2q29 42 86.5 67t135.5 25q104 0 167 -50.5t63 -148.5v-357h-212v293q0 103 -110 103q-59 0 -95.5 -33t-36.5 -97v-266h-212zM89 780l149 140h296l149 -140h-234l-71 77l-71 -77h-218z" />
    <glyph glyph-name="Hbar" unicode="&#x126;" horiz-adv-x="981" 
d="M671 0v289h-361v-289h-238v714h238v-124h361v124h238v-714h-238zM310 439h361v60h-361v-60z" />
    <glyph glyph-name="hbar" unicode="&#x127;" horiz-adv-x="848" 
d="M6 580v91h120v61h212v-61h167v-91h-167v-116h2q29 42 86.5 67t135.5 25q104 0 167 -50.5t63 -148.5v-357h-212v293q0 103 -110 103q-59 0 -95.5 -33t-36.5 -97v-266h-212v580h-120z" />
    <glyph glyph-name="Itilde" unicode="&#x128;" horiz-adv-x="388" 
d="M75 0v714h238v-714h-238zM22 783h-96q34 145 162 145q30 0 71 -9l139 -29q18 -5 28 -5q27 0 43 35h93q-9 -65 -43 -106.5t-98 -41.5q-46 0 -193 35q-55 12 -60 12q-37 0 -46 -36z" />
    <glyph glyph-name="itilde" unicode="&#x129;" horiz-adv-x="332" 
d="M60 0v542h212v-542h-212zM-5 603h-96q34 145 162 145q30 0 71 -9l139 -29q18 -5 28 -5q27 0 43 35h93q-9 -65 -43 -106.5t-98 -41.5q-46 0 -193 35q-55 12 -60 12q-37 0 -46 -36z" />
    <glyph glyph-name="Imacron" unicode="&#x12a;" horiz-adv-x="388" 
d="M75 0v714h238v-714h-238zM-69 792v116h526v-116h-526z" />
    <glyph glyph-name="imacron" unicode="&#x12b;" horiz-adv-x="332" 
d="M60 0v542h212v-542h-212zM-94 612v116h526v-116h-526z" />
    <glyph glyph-name="Iogonek" unicode="&#x12e;" horiz-adv-x="388" 
d="M313 0h-33q-60 -55 -74 -70q-19 -22 -19 -43q0 -38 36 -38q27 0 70 16l23 -56q-72 -29 -142 -29q-63 0 -94 24t-31 64q0 81 141 132h-115v714h238v-714z" />
    <glyph glyph-name="iogonek" unicode="&#x12f;" horiz-adv-x="332" 
d="M272 0h-20q-56 -53 -72 -70q-18 -22 -18 -43q0 -38 35 -38q26 0 67 16l23 -56q-71 -29 -138 -29q-61 0 -91 24t-30 64q0 82 137 132h-105v542h212v-542zM60 604v128h212v-128h-212z" />
    <glyph glyph-name="Idotaccent" unicode="&#x130;" horiz-adv-x="388" 
d="M75 0v714h238v-714h-238zM89 786v128h212v-128h-212z" />
    <glyph glyph-name="dotlessi" unicode="&#x131;" horiz-adv-x="332" 
d="M60 0v542h212v-542h-212z" />
    <glyph glyph-name="Jcircumflex" unicode="&#x134;" horiz-adv-x="741" 
d="M9 256v30h238q0 -86 18.5 -120t78.5 -34q59 0 79 31.5t20 98.5v452h238v-466q0 -46 -6.5 -82t-27 -73t-55 -61t-93.5 -39t-139 -15q-84 0 -144 12t-109 41.5t-73.5 85.5t-24.5 139zM263 780l149 140h296l149 -140h-234l-71 77l-71 -77h-218z" />
    <glyph glyph-name="jcircumflex" unicode="&#x135;" horiz-adv-x="352" 
d="M-27 -193v145h25q55 0 68.5 12t13.5 58v520h212v-535q0 -119 -43 -161t-170 -42q-22 0 -106 3zM-109 600l149 140h296l149 -140h-234l-71 77l-71 -77h-218z" />
    <glyph glyph-name="Kcommaaccent" unicode="&#x136;" horiz-adv-x="926" 
d="M72 0v714h238v-280l298 280h317l-323 -281l348 -433h-318l-221 285l-101 -84v-201h-238zM360 -158v108h208v-76q0 -31 -13 -54q-12 -25 -44 -40q-31 -15 -111 -15v45q51 5 56 32h-96z" />
    <glyph glyph-name="kcommaaccent" unicode="&#x137;" horiz-adv-x="778" 
d="M56 0v732h212v-379l212 189h287l-250 -201l274 -341h-288l-154 205l-81 -65v-140h-212zM278 -158v108h208v-76q0 -31 -13 -54q-12 -25 -44 -40q-31 -15 -111 -15v45q51 5 56 32h-96z" />
    <glyph glyph-name="Lacute" unicode="&#x139;" horiz-adv-x="760" 
d="M72 0v714h238v-548h435v-166h-673zM92 780l91 140h258l-149 -140h-200z" />
    <glyph glyph-name="lacute" unicode="&#x13a;" horiz-adv-x="332" 
d="M60 0v732h212v-732h-212zM62 780l91 140h258l-149 -140h-200z" />
    <glyph glyph-name="Lcommaaccent" unicode="&#x13b;" horiz-adv-x="760" 
d="M72 0v714h238v-548h435v-166h-673zM292 -158v108h208v-76q0 -31 -13 -54q-12 -25 -44 -40q-31 -15 -111 -15v45q51 5 56 32h-96z" />
    <glyph glyph-name="lcommaaccent" unicode="&#x13c;" horiz-adv-x="332" 
d="M60 0v732h212v-732h-212zM62 -158v108h208v-76q0 -31 -13 -54q-12 -25 -44 -40q-31 -15 -111 -15v45q51 5 56 32h-96z" />
    <glyph glyph-name="Lcaron" unicode="&#x13d;" horiz-adv-x="760" 
d="M72 0v714h238v-548h435v-166h-673zM388 572l35 160h200l-83 -160h-152z" />
    <glyph glyph-name="lcaron" unicode="&#x13e;" horiz-adv-x="511" 
d="M60 0v732h212v-732h-212zM316 572l35 160h200l-83 -160h-152z" />
    <glyph glyph-name="Ldot" unicode="&#x13f;" horiz-adv-x="760" 
d="M72 0v714h238v-548h435v-166h-673zM407 349v197h142v-197h-142z" />
    <glyph glyph-name="ldot" unicode="&#x140;" horiz-adv-x="530" 
d="M60 0v732h212v-732h-212zM341 346v194h140v-194h-140z" />
    <glyph glyph-name="Lslash" unicode="&#x141;" horiz-adv-x="760" 
d="M0 164v160l72 44v346h238v-217l171 105v-160l-171 -105v-171h435v-166h-673v208z" />
    <glyph glyph-name="lslash" unicode="&#x142;" horiz-adv-x="332" 
d="M60 0v259l-60 -37v140l60 37v333h212v-212l60 36v-140l-60 -36v-380h-212z" />
    <glyph glyph-name="Nacute" unicode="&#x143;" horiz-adv-x="981" 
d="M72 0v714h274l331 -447h2v447h230v-714h-263l-342 451h-2v-451h-230zM397 780l91 140h258l-149 -140h-200z" />
    <glyph glyph-name="nacute" unicode="&#x144;" horiz-adv-x="778" 
d="M56 0v542h206v-78h2q75 92 228 92q104 0 167 -50.5t63 -148.5v-357h-212v293q0 103 -110 103q-59 0 -95.5 -33t-36.5 -97v-266h-212zM297 600l91 140h258l-149 -140h-200z" />
    <glyph glyph-name="Ncommaaccent" unicode="&#x145;" horiz-adv-x="981" 
d="M72 0v714h274l331 -447h2v447h230v-714h-263l-342 451h-2v-451h-230zM383 -158v108h208v-76q0 -31 -13 -54q-12 -25 -44 -40t-111 -15v45q51 5 56 32h-96z" />
    <glyph glyph-name="ncommaaccent" unicode="&#x146;" horiz-adv-x="778" 
d="M56 0v542h206v-78h2q75 92 228 92q104 0 167 -50.5t63 -148.5v-357h-212v293q0 103 -110 103q-59 0 -95.5 -33t-36.5 -97v-266h-212zM284 -158v108h208v-76q0 -31 -13 -54q-12 -25 -44 -40q-31 -15 -111 -15v45q51 5 56 32h-96z" />
    <glyph glyph-name="Ncaron" unicode="&#x147;" horiz-adv-x="981" 
d="M72 0v714h274l331 -447h2v447h230v-714h-263l-342 451h-2v-451h-230zM341 780l-149 140h234l71 -77l71 77h218l-149 -140h-296z" />
    <glyph glyph-name="ncaron" unicode="&#x148;" horiz-adv-x="778" 
d="M56 0v542h206v-78h2q75 92 228 92q104 0 167 -50.5t63 -148.5v-357h-212v293q0 103 -110 103q-59 0 -95.5 -33t-36.5 -97v-266h-212zM240 600l-149 140h234l71 -77l71 77h218l-149 -140h-296z" />
    <glyph glyph-name="Omacron" unicode="&#x14c;" horiz-adv-x="1000" 
d="M35 357q0 379 465 379t465 -379t-465 -379t-465 379zM287 357q0 -109 57 -164t156 -55t156 55t57 164t-57 164t-156 55q-98 0 -155.5 -55.5t-57.5 -163.5zM237 792v116h526v-116h-526z" />
    <glyph glyph-name="omacron" unicode="&#x14d;" 
d="M407 424q-74 0 -115 -38.5t-41 -114.5t41 -114.5t115 -38.5t115 38.5t41 114.5t-41 114.5t-115 38.5zM27 271q0 144 97 218.5t283 74.5t283 -74.5t97 -218.5t-97 -218.5t-283 -74.5t-283 74.5t-97 218.5zM144 612v116h526v-116h-526z" />
    <glyph glyph-name="Obreve" unicode="&#x14e;" horiz-adv-x="1000" 
d="M35 357q0 379 465 379t465 -379t-465 -379t-465 379zM287 357q0 -109 57 -164t156 -55t156 55t57 164t-57 164t-156 55q-98 0 -155.5 -55.5t-57.5 -163.5zM276 928h116q6 -28 33 -40q29 -12 75 -12q50 0 76 12t32 40h116q-12 -84 -69 -121q-55 -35 -155 -35
q-102 0 -157 36t-67 120z" />
    <glyph glyph-name="obreve" unicode="&#x14f;" 
d="M407 424q-74 0 -115 -38.5t-41 -114.5t41 -114.5t115 -38.5t115 38.5t41 114.5t-41 114.5t-115 38.5zM27 271q0 144 97 218.5t283 74.5t283 -74.5t97 -218.5t-97 -218.5t-283 -74.5t-283 74.5t-97 218.5zM183 748h116q6 -28 33 -40q28 -12 75 -12q50 0 76 12t32 40h116
q-12 -84 -69 -121q-55 -35 -155 -35q-102 0 -157 36t-67 120z" />
    <glyph glyph-name="Ohungarumlaut" unicode="&#x150;" horiz-adv-x="1000" 
d="M35 357q0 379 465 379t465 -379t-465 -379t-465 379zM287 357q0 -109 57 -164t156 -55t156 55t57 164t-57 164t-156 55q-98 0 -155.5 -55.5t-57.5 -163.5zM258 780l91 140h258l-149 -140h-200zM563 780l91 140h258l-149 -140h-200z" />
    <glyph glyph-name="ohungarumlaut" unicode="&#x151;" 
d="M407 424q-74 0 -115 -38.5t-41 -114.5t41 -114.5t115 -38.5t115 38.5t41 114.5t-41 114.5t-115 38.5zM27 271q0 144 97 218.5t283 74.5t283 -74.5t97 -218.5t-97 -218.5t-283 -74.5t-283 74.5t-97 218.5zM161 600l91 140h258l-149 -140h-200zM466 600l91 140h258
l-149 -140h-200z" />
    <glyph glyph-name="OE" unicode="&#x152;" horiz-adv-x="1167" 
d="M573 258v214q0 42 -42.5 76t-97.5 34q-160 0 -160 -225q0 -100 37.5 -162.5t122.5 -62.5q62 0 101 40t39 86zM574 0v48q-79 -70 -200 -70q-153 0 -246 100t-93 279q0 180 94 279.5t251 99.5q131 0 194 -70v48h559v-154h-354v-129h341v-148h-341v-129h360v-154h-565z" />
    <glyph glyph-name="oe" unicode="&#x153;" horiz-adv-x="1167" 
d="M922 160h206q-32 -95 -113 -138.5t-190 -43.5q-167 0 -238 82q-89 -82 -229 -82q-163 0 -247 77.5t-84 215.5t84 215.5t247 77.5q144 0 230 -72q72 72 218 72q166 0 247.5 -84t81.5 -233v-26h-463q4 -51 37.5 -86t100.5 -35q34 0 58 10t34 21t20 29zM504 271
q0 153 -136 153q-135 0 -135 -153t135 -153q136 0 136 153zM672 325h271q-9 52 -42.5 84.5t-94.5 32.5q-59 0 -92 -32.5t-42 -84.5z" />
    <glyph glyph-name="Racute" unicode="&#x154;" horiz-adv-x="926" 
d="M310 554v-156h229q44 0 66.5 21t22.5 58q0 36 -23 56.5t-66 20.5h-229zM72 0v714h572q239 0 239 -199q0 -68 -31.5 -109t-82.5 -54v-2q77 -26 86 -128q9 -116 16.5 -156.5t28.5 -65.5h-261q-14 33 -14 106q0 79 -23.5 105.5t-73.5 26.5h-218v-238h-238zM339 780l91 140
h258l-149 -140h-200z" />
    <glyph glyph-name="racute" unicode="&#x155;" horiz-adv-x="574" 
d="M60 0v542h209v-107h2q33 55 91.5 88t129.5 33q40 0 72 -6v-198q-44 18 -117 18q-88 0 -131.5 -42t-43.5 -118v-210h-212zM66 600l91 140h258l-149 -140h-200z" />
    <glyph glyph-name="Rcommaaccent" unicode="&#x156;" horiz-adv-x="926" 
d="M310 554v-156h229q44 0 66.5 21t22.5 58q0 36 -23 56.5t-66 20.5h-229zM72 0v714h572q239 0 239 -199q0 -68 -31.5 -109t-82.5 -54v-2q77 -26 86 -128q9 -116 16.5 -156.5t28.5 -65.5h-261q-14 33 -14 106q0 79 -23.5 105.5t-73.5 26.5h-218v-238h-238zM370 -158v108h208
v-76q0 -31 -13 -54q-12 -25 -44 -40q-31 -15 -111 -15v45q51 5 56 32h-96z" />
    <glyph glyph-name="rcommaaccent" unicode="&#x157;" horiz-adv-x="574" 
d="M60 0v542h209v-107h2q33 55 91.5 88t129.5 33q40 0 72 -6v-198q-44 18 -117 18q-88 0 -131.5 -42t-43.5 -118v-210h-212zM61 -158v108h208v-76q0 -31 -13 -54q-12 -25 -44 -40t-111 -15v45q51 5 56 32h-96z" />
    <glyph glyph-name="Rcaron" unicode="&#x158;" horiz-adv-x="926" 
d="M310 554v-156h229q44 0 66.5 21t22.5 58q0 36 -23 56.5t-66 20.5h-229zM72 0v714h572q239 0 239 -199q0 -68 -31.5 -109t-82.5 -54v-2q77 -26 86 -128q9 -116 16.5 -156.5t28.5 -65.5h-261q-14 33 -14 106q0 79 -23.5 105.5t-73.5 26.5h-218v-238h-238zM299 780l-149 140
h234l71 -77l71 77h218l-149 -140h-296z" />
    <glyph glyph-name="rcaron" unicode="&#x159;" horiz-adv-x="574" 
d="M60 0v542h209v-107h2q33 55 91.5 88t129.5 33q40 0 72 -6v-198q-44 18 -117 18q-88 0 -131.5 -42t-43.5 -118v-210h-212zM160 600l-149 140h234l71 -77l71 77h218l-149 -140h-296z" />
    <glyph glyph-name="Sacute" unicode="&#x15a;" horiz-adv-x="889" 
d="M836 505h-270q-7 40 -42 61.5t-113 21.5q-124 0 -124 -70q0 -35 53 -44q26 -5 86 -14.5t133 -20.5t94 -14q105 -18 159 -65.5t54 -137.5q0 -244 -412 -244q-98 0 -169 10t-131.5 36t-93 75t-37.5 121h282q4 -44 38.5 -66t121.5 -22q125 0 125 75q0 27 -24.5 40.5
t-88.5 23.5l-238 36q-204 29 -204 202q0 31 8 59.5t32.5 60t64 54.5t108 38t158.5 15q202 0 310 -54.5t120 -176.5zM352 780l91 140h258l-149 -140h-200z" />
    <glyph glyph-name="sacute" unicode="&#x15b;" horiz-adv-x="759" 
d="M27 169h246q5 -31 30 -46q29 -17 94 -17q97 0 97 48q0 21 -15.5 29t-57.5 14l-189 23q-95 11 -141 47t-46 104q0 105 83.5 149t245.5 44q323 0 338 -180h-238q-4 33 -38 46q-28 12 -76 12q-97 0 -97 -51q0 -29 68 -38l183 -20q113 -12 165.5 -50.5t52.5 -116.5
q0 -188 -347 -188q-352 0 -358 191zM293 600l91 140h258l-149 -140h-200z" />
    <glyph glyph-name="Scircumflex" unicode="&#x15c;" horiz-adv-x="889" 
d="M836 505h-270q-7 40 -42 61.5t-113 21.5q-124 0 -124 -70q0 -35 53 -44q26 -5 86 -14.5t133 -20.5t94 -14q105 -18 159 -65.5t54 -137.5q0 -244 -412 -244q-98 0 -169 10t-131.5 36t-93 75t-37.5 121h282q4 -44 38.5 -66t121.5 -22q125 0 125 75q0 27 -24.5 40.5
t-88.5 23.5l-238 36q-204 29 -204 202q0 31 8 59.5t32.5 60t64 54.5t108 38t158.5 15q202 0 310 -54.5t120 -176.5zM150 780l149 140h296l149 -140h-234l-71 77l-71 -77h-218z" />
    <glyph glyph-name="scircumflex" unicode="&#x15d;" horiz-adv-x="759" 
d="M27 169h246q5 -31 30 -46q29 -17 94 -17q97 0 97 48q0 21 -15.5 29t-57.5 14l-189 23q-95 11 -141 47t-46 104q0 105 83.5 149t245.5 44q323 0 338 -180h-238q-4 33 -38 46q-28 12 -76 12q-97 0 -97 -51q0 -29 68 -38l183 -20q113 -12 165.5 -50.5t52.5 -116.5
q0 -188 -347 -188q-352 0 -358 191zM85 600l149 140h296l149 -140h-234l-71 77l-71 -77h-218z" />
    <glyph glyph-name="Scedilla" unicode="&#x15e;" horiz-adv-x="889" 
d="M287 -197l18 53q48 -16 81 -16q22 0 34.5 10t12.5 24q0 25 -39 25q-15 0 -36 -7l-25 20l47 68q-44 1 -94 8q-120 16 -188 70.5t-75 161.5h282q4 -44 38.5 -66t121.5 -22q125 0 125 75q0 27 -24.5 40.5t-88.5 23.5l-238 36q-204 29 -204 202q0 31 8 59.5t32.5 60t64 54.5
t108 38t158.5 15q202 0 310 -54.5t120 -176.5h-270q-7 40 -42 61.5t-113 21.5q-124 0 -124 -70q0 -35 53 -44q26 -5 86 -14.5t133 -20.5t94 -14q105 -18 159 -65.5t54 -137.5q0 -244 -412 -244h-6l-21 -29q32 5 47 5q37 0 68 -19.5t31 -59.5q0 -45 -37 -70t-106 -25
q-83 0 -143 23z" />
    <glyph glyph-name="Scedilla" unicode="&#xf6c1;" horiz-adv-x="889" 
d="M287 -197l18 53q48 -16 81 -16q22 0 34.5 10t12.5 24q0 25 -39 25q-15 0 -36 -7l-25 20l47 68q-44 1 -94 8q-120 16 -188 70.5t-75 161.5h282q4 -44 38.5 -66t121.5 -22q125 0 125 75q0 27 -24.5 40.5t-88.5 23.5l-238 36q-204 29 -204 202q0 31 8 59.5t32.5 60t64 54.5
t108 38t158.5 15q202 0 310 -54.5t120 -176.5h-270q-7 40 -42 61.5t-113 21.5q-124 0 -124 -70q0 -35 53 -44q26 -5 86 -14.5t133 -20.5t94 -14q105 -18 159 -65.5t54 -137.5q0 -244 -412 -244h-6l-21 -29q32 5 47 5q37 0 68 -19.5t31 -59.5q0 -45 -37 -70t-106 -25
q-83 0 -143 23z" />
    <glyph glyph-name="scedilla" unicode="&#x15f;" horiz-adv-x="759" 
d="M229 -197l18 53q48 -16 81 -16q22 0 34.5 10t12.5 24q0 25 -39 25q-15 0 -36 -7l-25 20l48 68q-19 1 -57 5q-103 12 -169.5 55.5t-69.5 128.5h246q5 -31 30 -46q29 -17 94 -17q97 0 97 48q0 21 -15.5 29t-57.5 14l-189 23q-95 11 -141 47t-46 104q0 105 83.5 149
t245.5 44q323 0 338 -180h-238q-4 33 -38 46q-28 12 -76 12q-97 0 -97 -51q0 -29 68 -38l183 -20q113 -12 165.5 -50.5t52.5 -116.5q0 -96 -89 -143q-87 -44 -253 -45l-21 -29q32 5 47 5q37 0 68 -19.5t31 -59.5q0 -45 -37 -70t-106 -25q-83 0 -143 23z" />
    <glyph glyph-name="scedilla" unicode="&#xf6c2;" horiz-adv-x="759" 
d="M229 -197l18 53q48 -16 81 -16q22 0 34.5 10t12.5 24q0 25 -39 25q-15 0 -36 -7l-25 20l48 68q-19 1 -57 5q-103 12 -169.5 55.5t-69.5 128.5h246q5 -31 30 -46q29 -17 94 -17q97 0 97 48q0 21 -15.5 29t-57.5 14l-189 23q-95 11 -141 47t-46 104q0 105 83.5 149
t245.5 44q323 0 338 -180h-238q-4 33 -38 46q-28 12 -76 12q-97 0 -97 -51q0 -29 68 -38l183 -20q113 -12 165.5 -50.5t52.5 -116.5q0 -96 -89 -143q-87 -44 -253 -45l-21 -29q32 5 47 5q37 0 68 -19.5t31 -59.5q0 -45 -37 -70t-106 -25q-83 0 -143 23z" />
    <glyph glyph-name="Scaron" unicode="&#x160;" horiz-adv-x="889" 
d="M836 505h-270q-7 40 -42 61.5t-113 21.5q-124 0 -124 -70q0 -35 53 -44q26 -5 86 -14.5t133 -20.5t94 -14q105 -18 159 -65.5t54 -137.5q0 -244 -412 -244q-98 0 -169 10t-131.5 36t-93 75t-37.5 121h282q4 -44 38.5 -66t121.5 -22q125 0 125 75q0 27 -24.5 40.5
t-88.5 23.5l-238 36q-204 29 -204 202q0 31 8 59.5t32.5 60t64 54.5t108 38t158.5 15q202 0 310 -54.5t120 -176.5zM299 780l-149 140h234l71 -77l71 77h218l-149 -140h-296z" />
    <glyph glyph-name="scaron" unicode="&#x161;" horiz-adv-x="759" 
d="M27 169h246q5 -31 30 -46q29 -17 94 -17q97 0 97 48q0 21 -15.5 29t-57.5 14l-189 23q-95 11 -141 47t-46 104q0 105 83.5 149t245.5 44q323 0 338 -180h-238q-4 33 -38 46q-28 12 -76 12q-97 0 -97 -51q0 -29 68 -38l183 -20q113 -12 165.5 -50.5t52.5 -116.5
q0 -188 -347 -188q-352 0 -358 191zM233 600l-149 140h234l71 -77l71 77h218l-149 -140h-296z" />
    <glyph glyph-name="Tcommaaccent" unicode="&#x162;" horiz-adv-x="760" 
d="M-1 554v160h762v-160h-262v-554h-238v554h-262zM274 -158v108h208v-76q0 -31 -13 -54q-12 -25 -44 -40q-31 -15 -111 -15v45q51 5 56 32h-96z" />
    <glyph glyph-name="tcommaaccent" unicode="&#x163;" horiz-adv-x="500" 
d="M0 402v140h111v172h212v-172h140v-140h-140v-218q0 -35 13 -45.5t56 -10.5q19 0 75 2v-132q-61 -10 -161 -10q-107 0 -151 32.5t-44 118.5v263h-111zM187 -158v108h208v-76q0 -31 -13 -54q-12 -25 -44 -40t-111 -15v45q51 5 56 32h-96z" />
    <glyph glyph-name="Tcaron" unicode="&#x164;" horiz-adv-x="760" 
d="M-1 554v160h762v-160h-262v-554h-238v554h-262zM235 780l-149 140h234l71 -77l71 77h218l-149 -140h-296z" />
    <glyph glyph-name="tcaron" unicode="&#x165;" horiz-adv-x="632" 
d="M435 572l35 160h200l-83 -160h-152zM0 402v140h111v172h212v-172h140v-140h-140v-218q0 -35 13 -45.5t56 -10.5q19 0 75 2v-132q-61 -10 -161 -10q-107 0 -151 32.5t-44 118.5v263h-111z" />
    <glyph glyph-name="Tbar" unicode="&#x166;" horiz-adv-x="760" 
d="M90 345v91h171v118h-262v160h762v-160h-262v-118h170v-91h-170v-345h-238v345h-171z" />
    <glyph glyph-name="tbar" unicode="&#x167;" horiz-adv-x="500" 
d="M-10 243v91h121v78h-111v130h111v172h212v-172h140v-130h-140v-78h150v-91h-150v-59q0 -35 13 -45.5t56 -10.5q19 0 75 2v-132q-61 -10 -161 -10q-107 0 -151 32.5t-44 118.5v104h-121z" />
    <glyph glyph-name="Utilde" unicode="&#x168;" horiz-adv-x="926" 
d="M62 252v462h238v-423q0 -84 39 -118.5t124 -34.5t124 34.5t39 118.5v423h238v-462q0 -143 -102 -208.5t-299 -65.5t-299 65.5t-102 208.5zM291 783h-96q34 145 162 145q30 0 71 -9l139 -29q18 -5 28 -5q27 0 43 35h93q-9 -65 -43 -106.5t-98 -41.5q-46 0 -193 35
q-55 12 -60 12q-37 0 -46 -36z" />
    <glyph glyph-name="utilde" unicode="&#x169;" horiz-adv-x="778" 
d="M56 197v345h212v-280q0 -67 27 -95.5t83 -28.5q59 0 95.5 33t36.5 97v274h212v-542h-206v70h-2q-75 -92 -228 -92q-230 0 -230 219zM218 603h-96q34 145 162 145q30 0 71 -9l139 -29q18 -5 28 -5q27 0 43 35h93q-9 -65 -43 -106.5t-98 -41.5q-46 0 -193 35q-55 12 -60 12
q-37 0 -46 -36z" />
    <glyph glyph-name="Umacron" unicode="&#x16a;" horiz-adv-x="926" 
d="M62 252v462h238v-423q0 -84 39 -118.5t124 -34.5t124 34.5t39 118.5v423h238v-462q0 -143 -102 -208.5t-299 -65.5t-299 65.5t-102 208.5zM202 792v116h526v-116h-526z" />
    <glyph glyph-name="umacron" unicode="&#x16b;" horiz-adv-x="778" 
d="M56 197v345h212v-280q0 -67 27 -95.5t83 -28.5q59 0 95.5 33t36.5 97v274h212v-542h-206v70h-2q-75 -92 -228 -92q-230 0 -230 219zM127 612v116h526v-116h-526z" />
    <glyph glyph-name="Ubreve" unicode="&#x16c;" horiz-adv-x="926" 
d="M62 252v462h238v-423q0 -84 39 -118.5t124 -34.5t124 34.5t39 118.5v423h238v-462q0 -143 -102 -208.5t-299 -65.5t-299 65.5t-102 208.5zM242 928h116q6 -28 33 -40q29 -12 75 -12q50 0 76 12t32 40h116q-12 -84 -69 -121q-55 -35 -155 -35q-102 0 -157 36t-67 120z" />
    <glyph glyph-name="ubreve" unicode="&#x16d;" horiz-adv-x="778" 
d="M56 197v345h212v-280q0 -67 27 -95.5t83 -28.5q59 0 95.5 33t36.5 97v274h212v-542h-206v70h-2q-75 -92 -228 -92q-230 0 -230 219zM164 748h116q6 -28 33 -40q29 -12 75 -12q50 0 76 12t32 40h116q-12 -84 -69 -121q-55 -35 -155 -35q-102 0 -157 36t-67 120z" />
    <glyph glyph-name="Uring" unicode="&#x16e;" horiz-adv-x="926" 
d="M62 252v462h238v-423q0 -84 39 -118.5t124 -34.5t124 34.5t39 118.5v423h238v-462q0 -143 -102 -208.5t-299 -65.5t-299 65.5t-102 208.5zM330 875q0 56 39 92t95 36t95 -36t39 -92t-38.5 -91.5t-95.5 -35.5t-95.5 35.5t-38.5 91.5zM406 875q0 -24 17 -41t41 -17t41 17
t17 41t-17 41t-41 17t-41 -17t-17 -41z" />
    <glyph glyph-name="uring" unicode="&#x16f;" horiz-adv-x="778" 
d="M56 197v345h212v-280q0 -67 27 -95.5t83 -28.5q59 0 95.5 33t36.5 97v274h212v-542h-206v70h-2q-75 -92 -228 -92q-230 0 -230 219zM255 700q0 56 39 92t95 36t95 -36t39 -92t-38.5 -91.5t-95.5 -35.5t-95.5 35.5t-38.5 91.5zM331 700q0 -24 17 -41t41 -17t41 17t17 41
t-17 41t-41 17t-41 -17t-17 -41z" />
    <glyph glyph-name="Uhungarumlaut" unicode="&#x170;" horiz-adv-x="926" 
d="M62 252v462h238v-423q0 -84 39 -118.5t124 -34.5t124 34.5t39 118.5v423h238v-462q0 -143 -102 -208.5t-299 -65.5t-299 65.5t-102 208.5zM229 780l91 140h258l-149 -140h-200zM534 780l91 140h258l-149 -140h-200z" />
    <glyph glyph-name="uhungarumlaut" unicode="&#x171;" horiz-adv-x="778" 
d="M56 197v345h212v-280q0 -67 27 -95.5t83 -28.5q59 0 95.5 33t36.5 97v274h212v-542h-206v70h-2q-75 -92 -228 -92q-230 0 -230 219zM141 600l91 140h258l-149 -140h-200zM446 600l91 140h258l-149 -140h-200z" />
    <glyph glyph-name="Uogonek" unicode="&#x172;" horiz-adv-x="926" 
d="M62 252v462h238v-423q0 -84 39 -118.5t124 -34.5t124 34.5t39 118.5v423h238v-462q0 -212 -232 -259q-45 -10 -106 -13q-43 -41 -51 -50q-19 -22 -19 -43q0 -38 36 -38q27 0 70 16l23 -56q-73 -29 -142 -29q-63 0 -94 24t-31 64q0 45 40 78q21 16 52 33q-72 5 -117 14
q-231 47 -231 259z" />
    <glyph glyph-name="uogonek" unicode="&#x173;" horiz-adv-x="778" 
d="M56 197v345h212v-280q0 -67 27 -95.5t83 -28.5q59 0 95.5 33t36.5 97v274h212v-542h-90q-50 -48 -65 -72q-12 -21 -12 -41q0 -38 35 -38q26 0 67 16l23 -56q-71 -29 -138 -29q-61 0 -91 24t-30 64q0 41 21.5 68t73.5 64v70h-2q-75 -92 -228 -92q-230 0 -230 219z" />
    <glyph glyph-name="Wcircumflex" unicode="&#x174;" horiz-adv-x="1148" 
d="M214 0l-214 714h230l112 -482h2l129 482h202l129 -482h2l112 482h230l-214 -714h-235l-124 465h-2l-124 -465h-235zM277 780l149 140h296l149 -140h-234l-71 77l-71 -77h-218z" />
    <glyph glyph-name="wcircumflex" unicode="&#x175;" horiz-adv-x="1130" 
d="M198 0l-196 542h230l112 -356h2l123 356h192l123 -356h2l112 356h230l-196 -542h-252l-114 319h-2l-114 -319h-252zM277 600l149 140h296l149 -140h-234l-71 77l-71 -77h-218z" />
    <glyph glyph-name="Ycircumflex" unicode="&#x176;" 
d="M288 0v225l-317 489h276l160 -303l160 303h276l-317 -489v-225h-238zM118 780l149 140h296l149 -140h-234l-71 77l-71 -77h-218z" />
    <glyph glyph-name="ycircumflex" unicode="&#x177;" horiz-adv-x="685" 
d="M64 -190v134h51q34 0 55.5 6.5t28 13t13.5 19.5l24 48l-255 511h230l137 -322l132 322h224l-288 -610q-33 -70 -72.5 -99t-130.5 -29q-67 0 -149 6zM55 600l149 140h296l149 -140h-234l-71 77l-71 -77h-218z" />
    <glyph glyph-name="Ydieresis" unicode="&#x178;" 
d="M288 0v225l-317 489h276l160 -303l160 303h276l-317 -489v-225h-238zM149 786v128h212v-128h-212zM455 786v128h212v-128h-212z" />
    <glyph glyph-name="Zacute" unicode="&#x179;" 
d="M18 0v137l450 417h-419v160h738v-140l-447 -414h440v-160h-762zM318 780l91 140h258l-149 -140h-200z" />
    <glyph glyph-name="zacute" unicode="&#x17a;" horiz-adv-x="667" 
d="M22 0v128l326 264v2h-309v148h596v-128l-316 -266h326v-148h-623zM239 600l91 140h258l-149 -140h-200z" />
    <glyph glyph-name="Zdotaccent" unicode="&#x17b;" 
d="M18 0v137l450 417h-419v160h738v-140l-447 -414h440v-160h-762zM311 786v128h212v-128h-212z" />
    <glyph glyph-name="zdotaccent" unicode="&#x17c;" horiz-adv-x="667" 
d="M22 0v128l326 264v2h-309v148h596v-128l-316 -266h326v-148h-623zM230 606v128h212v-128h-212z" />
    <glyph glyph-name="Zcaron" unicode="&#x17d;" 
d="M18 0v137l450 417h-419v160h738v-140l-447 -414h440v-160h-762zM271 780l-149 140h234l71 -77l71 77h218l-149 -140h-296z" />
    <glyph glyph-name="zcaron" unicode="&#x17e;" horiz-adv-x="667" 
d="M22 0v128l326 264v2h-309v148h596v-128l-316 -266h326v-148h-623zM193 600l-149 140h234l71 -77l71 77h218l-149 -140h-296z" />
    <glyph glyph-name="florin" unicode="&#x192;" horiz-adv-x="888" 
d="M232 295l22 104h114l33 165q13 63 61.5 103.5t162.5 40.5q34 0 134 -7l-24 -130q-2 0 -23 1.5t-32 1.5q-34 0 -49 -14t-21 -42l-24 -119h112l-22 -104h-112l-72 -347q-17 -80 -74.5 -112t-152.5 -32q-45 0 -136 7l27 130q48 -3 49 -3q40 0 58 18.5t33 93.5l50 245h-114z
" />
    <glyph glyph-name="Scommaaccent" unicode="&#x218;" horiz-adv-x="889" 
d="M836 505h-270q-7 40 -42 61.5t-113 21.5q-124 0 -124 -70q0 -35 53 -44q26 -5 86 -14.5t133 -20.5t94 -14q105 -18 159 -65.5t54 -137.5q0 -244 -412 -244q-98 0 -169 10t-131.5 36t-93 75t-37.5 121h282q4 -44 38.5 -66t121.5 -22q125 0 125 75q0 27 -24.5 40.5
t-88.5 23.5l-238 36q-204 29 -204 202q0 31 8 59.5t32.5 60t64 54.5t108 38t158.5 15q202 0 310 -54.5t120 -176.5zM331 -158v108h208v-76q0 -31 -13 -54q-12 -25 -44 -40t-111 -15v45q51 5 56 32h-96z" />
    <glyph glyph-name="scommaaccent" unicode="&#x219;" horiz-adv-x="759" 
d="M27 169h246q5 -31 30 -46q29 -17 94 -17q97 0 97 48q0 21 -15.5 29t-57.5 14l-189 23q-95 11 -141 47t-46 104q0 105 83.5 149t245.5 44q323 0 338 -180h-238q-4 33 -38 46q-28 12 -76 12q-97 0 -97 -51q0 -29 68 -38l183 -20q113 -12 165.5 -50.5t52.5 -116.5
q0 -188 -347 -188q-352 0 -358 191zM272 -158v108h208v-76q0 -31 -13 -54q-12 -25 -44 -40q-31 -15 -111 -15v45q51 5 56 32h-96z" />
    <glyph glyph-name="uni021A" unicode="&#x21a;" horiz-adv-x="760" 
d="M-1 554v160h762v-160h-262v-554h-238v554h-262zM274 -158v108h208v-76q0 -31 -13 -54q-12 -25 -44 -40q-31 -15 -111 -15v45q51 5 56 32h-96z" />
    <glyph glyph-name="uni021B" unicode="&#x21b;" horiz-adv-x="500" 
d="M0 402v140h111v172h212v-172h140v-140h-140v-218q0 -35 13 -45.5t56 -10.5q19 0 75 2v-132q-61 -10 -161 -10q-107 0 -151 32.5t-44 118.5v263h-111zM187 -158v108h208v-76q0 -31 -13 -54q-12 -25 -44 -40t-111 -15v45q51 5 56 32h-96z" />
    <glyph glyph-name="circumflex" unicode="&#x2c6;" horiz-adv-x="278" 
d="M-158 600l149 140h296l149 -140h-234l-71 77l-71 -77h-218z" />
    <glyph glyph-name="caron" unicode="&#x2c7;" horiz-adv-x="278" 
d="M-9 600l-149 140h234l71 -77l71 77h218l-149 -140h-296z" />
    <glyph glyph-name="uni02C9" unicode="&#x2c9;" horiz-adv-x="278" 
d="M-124 612v116h526v-116h-526z" />
    <glyph glyph-name="breve" unicode="&#x2d8;" horiz-adv-x="278" 
d="M-85 748h116q6 -28 33 -40q28 -12 75 -12q50 0 76 12t32 40h116q-12 -84 -69 -121q-55 -35 -155 -35q-102 0 -157 36t-67 120z" />
    <glyph glyph-name="dotaccent" unicode="&#x2d9;" horiz-adv-x="278" 
d="M33 606v128h212v-128h-212z" />
    <glyph glyph-name="ring" unicode="&#x2da;" horiz-adv-x="278" 
d="M5 700q0 56 39 92t95 36t95 -36t39 -92t-38.5 -91.5t-95.5 -35.5t-95.5 35.5t-38.5 91.5zM81 700q0 -24 17 -41t41 -17t41 17t17 41t-17 41t-41 17t-41 -17t-17 -41z" />
    <glyph glyph-name="ogonek" unicode="&#x2db;" horiz-adv-x="278" 
d="M214 0h90q-60 -55 -74 -70q-19 -22 -19 -43q0 -38 36 -38q27 0 70 16l23 -56q-72 -29 -142 -29q-63 0 -94 24t-31 64q0 81 141 132z" />
    <glyph glyph-name="tilde" unicode="&#x2dc;" horiz-adv-x="278" 
d="M-33 603h-96q34 145 162 145q30 0 71 -9l139 -29q18 -5 28 -5q27 0 43 35h93q-9 -65 -43 -106.5t-98 -41.5q-46 0 -193 35q-55 12 -60 12q-37 0 -46 -36z" />
    <glyph glyph-name="hungarumlaut" unicode="&#x2dd;" horiz-adv-x="278" 
d="M-140 600l91 140h258l-149 -140h-200zM165 600l91 140h258l-149 -140h-200z" />
    <glyph glyph-name="uni0394" unicode="&#x394;" horiz-adv-x="722" 
d="M710 0h-698l249 712h177zM486 150l-134 386l-124 -386h258z" />
    <glyph glyph-name="uni03A9" unicode="&#x3a9;" horiz-adv-x="778" 
d="M726 416q0 -88 -45.5 -161.5t-127.5 -90.5v-19h172v-145h-302v222q63 11 94.5 60t31.5 117q0 75 -41.5 125t-115.5 50q-75 0 -119 -52.5t-44 -128.5q0 -66 31.5 -112.5t92.5 -58.5v-222h-302v145h173v19q-84 23 -128.5 91.5t-44.5 159.5q0 144 98 225t244 81
q141 0 237 -82.5t96 -222.5z" />
    <glyph glyph-name="uni03BC" unicode="&#x3bc;" horiz-adv-x="778" 
d="M516 0v70h-2q-66 -92 -151 -92q-61 0 -93 36h-2v-210h-212v738h212v-280q0 -67 27 -95.5t83 -28.5q59 0 95.5 33t36.5 97v274h212v-542h-206z" />
    <glyph glyph-name="pi" unicode="&#x3c0;" horiz-adv-x="629" 
d="M604 134v-113q-58 -30 -109 -30q-70 0 -98.5 38t-28.5 109v217h-143v-355h-155v355h-70v141h604v-141h-81v-155q0 -3 -0.5 -14t0 -15.5t1.5 -14t3.5 -14t6.5 -9.5t11 -7.5t16 -2.5q19 0 43 11z" />
    <glyph glyph-name="endash" unicode="&#x2013;" horiz-adv-x="500" 
d="M0 220v140h500v-140h-500z" />
    <glyph glyph-name="emdash" unicode="&#x2014;" horiz-adv-x="1000" 
d="M0 220v140h1000v-140h-1000z" />
    <glyph glyph-name="quoteleft" unicode="&#x2018;" horiz-adv-x="388" 
d="M82 320v127q0 245 224 267v-82q-49 -9 -72.5 -41.5t-26.5 -72.5h99v-198h-224z" />
    <glyph glyph-name="quoteright" unicode="&#x2019;" horiz-adv-x="388" 
d="M82 516v198h224v-127q0 -245 -224 -267v82q88 17 99 114h-99z" />
    <glyph glyph-name="quotesinglbase" unicode="&#x201a;" horiz-adv-x="388" 
d="M82 0v198h224v-127q0 -245 -224 -267v82q88 17 99 114h-99z" />
    <glyph glyph-name="quotedblleft" unicode="&#x201c;" horiz-adv-x="667" 
d="M66 320v127q0 245 224 267v-82q-49 -9 -72.5 -41.5t-26.5 -72.5h99v-198h-224zM377 320v127q0 245 224 267v-82q-49 -9 -72.5 -41.5t-26.5 -72.5h99v-198h-224z" />
    <glyph glyph-name="quotedblright" unicode="&#x201d;" horiz-adv-x="667" 
d="M377 516v198h224v-127q0 -245 -224 -267v82q88 17 99 114h-99zM66 516v198h224v-127q0 -245 -224 -267v82q88 17 99 114h-99z" />
    <glyph glyph-name="quotedblbase" unicode="&#x201e;" horiz-adv-x="667" 
d="M377 0v198h224v-127q0 -245 -224 -267v82q88 17 99 114h-99zM66 0v198h224v-127q0 -245 -224 -267v82q88 17 99 114h-99z" />
    <glyph glyph-name="dagger" unicode="&#x2020;" horiz-adv-x="888" 
d="M335 -196v548h-246v154h246v208h218v-208h246v-154h-246v-548h-218z" />
    <glyph glyph-name="daggerdbl" unicode="&#x2021;" horiz-adv-x="888" 
d="M89 -3v140h249v244h-249v140h249v193h212v-193h249v-140h-249v-244h249v-140h-249v-193h-212v193h-249z" />
    <glyph glyph-name="bullet" unicode="&#x2022;" horiz-adv-x="500" 
d="M72 357q0 74 51.5 126t125.5 52t126.5 -52.5t52.5 -126.5t-52 -125.5t-126 -51.5t-126 52t-52 126z" />
    <glyph glyph-name="ellipsis" unicode="&#x2026;" horiz-adv-x="1000" 
d="M55 0v198h224v-198h-224zM388 0v198h224v-198h-224zM721 0v198h224v-198h-224z" />
    <glyph glyph-name="perthousand" unicode="&#x2030;" horiz-adv-x="1167" 
d="M122 530q0 -52 11 -78t42 -26q32 0 43.5 25t11.5 79q0 53 -11.5 78.5t-43.5 25.5q-31 0 -42 -26t-11 -78zM110 -16l455 724h112l-455 -724h-112zM552 162q0 -52 11 -78t42 -26q32 0 43.5 25t11.5 79q0 53 -11.5 78.5t-43.5 25.5q-31 0 -42 -26t-11 -78zM6 530
q0 77 42 127.5t128 50.5q170 0 170 -178t-170 -178q-86 0 -128 50.5t-42 127.5zM436 162q0 77 42 127.5t128 50.5q170 0 170 -178t-170 -178q-86 0 -128 50.5t-42 127.5zM821 162q0 77 42 127.5t128 50.5q170 0 170 -178t-170 -178q-86 0 -128 50.5t-42 127.5zM937 162
q0 -52 11 -78t42 -26q32 0 43.5 25t11.5 79q0 53 -11.5 78.5t-43.5 25.5q-31 0 -42 -26t-11 -78z" />
    <glyph glyph-name="guilsinglleft" unicode="&#x2039;" horiz-adv-x="388" 
d="M84 202v176l206 152v-148l-122 -92l122 -92v-148z" />
    <glyph glyph-name="guilsinglright" unicode="&#x203a;" horiz-adv-x="388" 
d="M98 50v148l122 92l-122 92v148l206 -152v-176z" />
    <glyph glyph-name="fraction" unicode="&#x2044;" horiz-adv-x="167" 
d="M-200 -16l455 724h112l-455 -724h-112z" />
    <glyph glyph-name="Euro" unicode="&#x20ac;" horiz-adv-x="888" 
d="M856 644l-88 -140q-32 24 -73 38q-51 18 -118 18q-78 0 -123 -27q-39 -23 -59 -68h355l-52 -86h-318q-5 -31 3 -68h276l-52 -86h-203q15 -41 55 -66q45 -27 118 -27q90 0 155 33q54 26 94 73v-190q-41 -23 -91 -39q-79 -25 -184 -25q-169 0 -269 71q-87 58 -117 170h-135
l52 86h69q-6 30 -1 68h-120l52 86h81q29 109 122 174q100 69 274 69q105 0 197 -23q53 -14 100 -41z" />
    <glyph glyph-name="afii61289" unicode="&#x2113;" horiz-adv-x="500" 
d="M465 56q-85 -70 -181 -70q-82 0 -127.5 42.5t-45.5 108.5v25l-54 -45h-2l-54 84l109 86v233q0 85 54 143t138 58q73 0 116.5 -42.5t43.5 -112.5q0 -77 -47 -149t-149 -154v-101q0 -33 16.5 -48t40.5 -15q36 0 88 37h2zM336 557q0 26 -9.5 44t-25.5 18q-15 0 -25 -19.5
t-10 -49.5v-157q70 71 70 164z" />
    <glyph glyph-name="trademark" unicode="&#x2122;" horiz-adv-x="1000" 
d="M114 302v308h-102v104h344v-104h-102v-308h-140zM830 302v258h-2l-89 -258h-88l-89 258h-2v-258h-128v412h174l89 -219l89 219h174v-412h-128z" />
    <glyph glyph-name="Omega" unicode="&#x2126;" horiz-adv-x="778" 
d="M726 416q0 -88 -45.5 -161.5t-127.5 -90.5v-19h172v-145h-302v222q63 11 94.5 60t31.5 117q0 75 -41.5 125t-115.5 50q-75 0 -119 -52.5t-44 -128.5q0 -66 31.5 -112.5t92.5 -58.5v-222h-302v145h173v19q-84 23 -128.5 91.5t-44.5 159.5q0 144 98 225t244 81
q141 0 237 -82.5t96 -222.5z" />
    <glyph glyph-name="estimated" unicode="&#x212e;" horiz-adv-x="600" 
d="M561 259h-404v-181q59 -59 145 -59q122 0 193 120l35 -21q-46 -72 -98 -103.5t-130 -31.5q-115 0 -186.5 79t-71.5 197q0 119 71 197.5t187 78.5q115 0 186.5 -77t72.5 -199zM157 295h291v145q-63 60 -147 60t-144 -60v-145z" />
    <glyph glyph-name="partialdiff" unicode="&#x2202;" horiz-adv-x="593" 
d="M548 358q0 -71 -11.5 -131.5t-39 -117.5t-81 -90t-129.5 -33q-107 0 -174.5 65t-67.5 172q0 97 63.5 163.5t161.5 66.5q67 0 123 -41q0 32 -5.5 62.5t-17.5 61t-37 49t-60 18.5q-58 0 -120 -58l-84 93q46 43 92.5 63t107.5 20q62 0 110.5 -20.5t79.5 -55t51.5 -82t29 -98
t8.5 -107.5zM391 273v21q-43 43 -95 43q-48 0 -74.5 -36t-26.5 -85q0 -46 24 -81t68 -35q29 0 51 17.5t32.5 45.5t15.5 55.5t5 54.5z" />
    <glyph glyph-name="Delta" unicode="&#x2206;" horiz-adv-x="722" 
d="M710 0h-698l249 712h177zM486 150l-134 386l-124 -386h258z" />
    <glyph glyph-name="product" unicode="&#x220f;" horiz-adv-x="759" 
d="M711 -214h-156v845h-350v-845h-157v1000h663v-1000z" />
    <glyph glyph-name="summation" unicode="&#x2211;" horiz-adv-x="704" 
d="M674 -214h-644v135l286 372l-275 356v137h621v-156h-413l251 -337l-266 -351h440v-156z" />
    <glyph glyph-name="minus" unicode="&#x2212;" horiz-adv-x="600" 
d="M47 183v140h506v-140h-506z" />
    <glyph glyph-name="uni2215" unicode="&#x2215;" horiz-adv-x="167" 
d="M-200 -16l455 724h112l-455 -724h-112z" />
    <glyph glyph-name="uni2219" unicode="&#x2219;" horiz-adv-x="388" 
d="M75 260q0 50 34.5 84.5t84.5 34.5t84.5 -34.5t34.5 -84.5t-34.5 -84.5t-84.5 -34.5t-84.5 34.5t-34.5 84.5z" />
    <glyph glyph-name="radical" unicode="&#x221a;" horiz-adv-x="611" 
d="M617 786l-225 -1000h-142l-140 286l-58 -27l-58 122l198 91l104 -232l155 760h166z" />
    <glyph glyph-name="infinity" unicode="&#x221e;" horiz-adv-x="889" 
d="M844 276q0 -96 -54 -158.5t-149 -62.5q-111 0 -197 118q-41 -57 -85.5 -87t-105.5 -30q-96 0 -152 61.5t-56 158.5q0 95 54 154.5t149 59.5q65 0 107 -31t89 -95q44 63 87.5 94.5t109.5 31.5q95 0 149 -59.5t54 -154.5zM712 273q0 35 -20.5 57.5t-55.5 22.5
q-57 0 -113 -82q55 -78 116 -78q35 0 54 22.5t19 57.5zM365 271q-22 32 -53.5 57t-62.5 25q-33 0 -52.5 -23.5t-19.5 -57.5q0 -35 19.5 -56.5t53.5 -21.5q62 0 115 77z" />
    <glyph glyph-name="integral" unicode="&#x222b;" horiz-adv-x="667" 
d="M573 684q0 -32 -20 -52.5t-52 -20.5q-33 0 -49 17t-17 37.5t-5.5 37.5t-17.5 17q-20 0 -20 -40q0 -34 4 -101t4 -101l1 -302v-32q1 -45 0.5 -69t-4 -67.5t-10.5 -69t-21.5 -58.5t-35.5 -51t-53.5 -31t-74.5 -13q-52 0 -97 26.5t-45 75.5q0 32 19.5 52.5t51.5 20.5
t48.5 -17t18 -37t6.5 -37t17 -17q20 0 20 42q0 30 -4.5 87t-4.5 86v389v49t2 48.5t5.5 52.5t11.5 46t19 46t29 36t41 32q36 20 90 20q53 0 98 -26t45 -76z" />
    <glyph glyph-name="approxequal" unicode="&#x2248;" horiz-adv-x="593" 
d="M477 503h102q-3 -49 -19 -95.5t-53 -83.5t-87 -37q-35 0 -124.5 30t-128.5 30q-22 0 -36 -15.5t-16 -38.5h-101q0 47 17 95t54.5 84.5t86.5 36.5q39 0 127.5 -29.5t126.5 -29.5q46 0 51 53zM477 253h102q-3 -49 -17.5 -95t-50 -84t-85.5 -38q-42 0 -131 30t-127 30
q-46 0 -53 -52h-101q0 44 17.5 92t54 85t82.5 37q44 0 129 -29.5t129 -29.5q25 0 36 13.5t15 40.5z" />
    <glyph glyph-name="notequal" unicode="&#x2260;" horiz-adv-x="593" 
d="M569 72h-285l-80 -163l-138 68l46 95h-89v157h167l42 87h-209v158h287l80 161l137 -68l-46 -93h88v-158h-165l-43 -87h208v-157z" />
    <glyph glyph-name="lessequal" unicode="&#x2264;" horiz-adv-x="593" 
d="M569 128l-546 164v156l546 148v-160l-326 -66l326 -81v-161zM569 -53h-546v157h546v-157z" />
    <glyph glyph-name="greaterequal" unicode="&#x2265;" horiz-adv-x="593" 
d="M569 292l-546 -164v161l327 81l-327 66v160l546 -148v-156zM569 -53h-546v157h546v-157z" />
    <glyph glyph-name="lozenge" unicode="&#x25ca;" horiz-adv-x="593" 
d="M562 356l-196 -391h-142l-194 391l196 391h140zM400 356l-104 231l-105 -231l105 -231z" />
    <glyph glyph-name="commaaccent" unicode="&#xf004;" horiz-adv-x="388" 
d="M85 -158v108h208v-76q0 -31 -13 -54q-12 -25 -44 -40t-111 -15v45q51 5 56 32h-96z" />
    <glyph glyph-name="commaaccent" unicode="&#xf6c3;" horiz-adv-x="388" 
d="M85 -158v108h208v-76q0 -31 -13 -54q-12 -25 -44 -40t-111 -15v45q51 5 56 32h-96z" />
    <glyph glyph-name="dotlessj" unicode="&#xf6be;" horiz-adv-x="352" 
d="M-27 -193v145h25q55 0 68.5 12t13.5 58v520h212v-535q0 -119 -43 -161t-170 -42q-22 0 -106 3z" />
    <glyph glyph-name="dotlessj" unicode="&#xfb0f;" horiz-adv-x="352" 
d="M-27 -193v145h25q55 0 68.5 12t13.5 58v520h212v-535q0 -119 -43 -161t-170 -42q-22 0 -106 3z" />
    <glyph glyph-name="uniF8FF" unicode="&#xf8ff;" horiz-adv-x="512" 
d="M222 117h56v67h-56v-67zM225 234h46q0 52 6 72q6 19 43 52q37 34 50 60t13 60q0 59 -35 95t-89 36q-56 0 -92 -34t-43 -103l50 -8q11 95 82 95q31 0 53.5 -24.5t22.5 -60.5q0 -20 -9.5 -37t-40.5 -46q-31 -31 -46 -59q-13 -25 -13 -81zM462 50h-412v617h412v-617z
M512 718h-512v-718h512v718z" />
    <glyph glyph-name="commaaccent.alt" horiz-adv-x="388" 
d="M298 732v-108h-208v76q0 30 12 54q13 25 45 40q31 15 111 15v-45q-51 -5 -56 -32h96z" />
    <glyph glyph-name="caron.alt" horiz-adv-x="278" 
d="M43 572l35 160h200l-83 -160h-152z" />
    <glyph glyph-name="grave.cap" horiz-adv-x="278" 
d="M65 600l-149 140h258l91 -140h-200z" />
    <glyph glyph-name="acute.cap" horiz-adv-x="278" 
d="M13 600l91 140h258l-149 -140h-200z" />
    <glyph glyph-name="circumflex.cap" horiz-adv-x="278" 
d="M-158 600l149 140h296l149 -140h-234l-71 77l-71 -77h-218z" />
    <glyph glyph-name="caron.cap" horiz-adv-x="278" 
d="M-9 600l-149 140h234l71 -77l71 77h218l-149 -140h-296z" />
    <glyph glyph-name="tilde.cap" horiz-adv-x="278" 
d="M-33 603h-96q34 145 162 145q30 0 71 -9l139 -29q18 -5 28 -5q27 0 43 35h93q-9 -65 -43 -106.5t-98 -41.5q-46 0 -193 35q-55 12 -60 12q-37 0 -46 -36z" />
    <glyph glyph-name="dieresis.cap" horiz-adv-x="278" 
d="M-120 606v128h212v-128h-212zM186 606v128h212v-128h-212z" />
    <glyph glyph-name="macron.cap" horiz-adv-x="278" 
d="M-124 612v116h526v-116h-526z" />
    <glyph glyph-name="breve.cap" horiz-adv-x="278" 
d="M-85 748h116q6 -28 33 -40q28 -12 75 -12q50 0 76 12t32 40h116q-12 -84 -69 -121q-55 -35 -155 -35q-102 0 -157 36t-67 120z" />
    <glyph glyph-name="ring.cap" horiz-adv-x="278" 
d="M5 700q0 56 39 92t95 36t95 -36t39 -92t-38.5 -91.5t-95.5 -35.5t-95.5 35.5t-38.5 91.5zM81 700q0 -24 17 -41t41 -17t41 17t17 41t-17 41t-41 17t-41 -17t-17 -41z" />
    <glyph glyph-name="hungarumlaut.cap" horiz-adv-x="278" 
d="M-140 600l91 140h258l-149 -140h-200zM165 600l91 140h258l-149 -140h-200z" />
    <glyph glyph-name="dotaccent.cap" horiz-adv-x="278" 
d="M33 606v128h212v-128h-212z" />
    </font>
</defs>
</svg>
